<svg aria-hidden="true" style="position: absolute; width: 0; height: 0; overflow: hidden;" version="1.1" xmlns="http://www.w3.org/2000/svg" xmlns:xlink="http://www.w3.org/1999/xlink">
<defs>
<symbol id="icon-TelegramLogo" viewBox="0 0 32 32">
<path fill="none" stroke="" style="" stroke-linejoin="round" stroke-linecap="round" stroke-miterlimit="4" stroke-width="1.3333" d="M11 16.859l11.24 9.891c0.13 0.115 0.288 0.193 0.457 0.228s0.345 0.026 0.51-0.027c0.165-0.053 0.313-0.148 0.43-0.276s0.199-0.283 0.238-0.452l4.702-20.517c0.041-0.177 0.032-0.362-0.025-0.535s-0.16-0.327-0.298-0.446c-0.138-0.119-0.306-0.198-0.485-0.228s-0.364-0.011-0.533 0.055l-23.070 9.063c-0.201 0.079-0.371 0.221-0.485 0.405s-0.165 0.399-0.146 0.614c0.019 0.215 0.107 0.418 0.252 0.579s0.337 0.271 0.548 0.313l6.664 1.333z"></path>
<path fill="none" stroke="" style="" stroke-linejoin="round" stroke-linecap="round" stroke-miterlimit="4" stroke-width="1.3333" d="M11 16.859l17.014-12.288"></path>
<path fill="none" stroke="" style="" stroke-linejoin="round" stroke-linecap="round" stroke-miterlimit="4" stroke-width="1.3333" d="M16.613 21.799l-3.906 3.906c-0.14 0.14-0.318 0.235-0.512 0.274s-0.395 0.019-0.578-0.057-0.339-0.204-0.449-0.368c-0.11-0.165-0.169-0.358-0.169-0.556v-8.139"></path>
</symbol>
<symbol id="icon-WhatsappLogo"  viewBox="0 0 32 32">
<path fill="none" stroke="" style="" stroke-linejoin="round" stroke-linecap="round" stroke-miterlimit="4" stroke-width="1.3333" d="M5.679 22.125c-1.491-2.513-2.013-5.485-1.468-8.355s2.119-5.445 4.427-7.237 5.191-2.681 8.107-2.499c2.917 0.183 5.666 1.423 7.733 3.49s3.307 4.816 3.49 7.733c0.182 2.917-0.706 5.799-2.499 8.107s-4.366 3.882-7.237 4.427c-2.871 0.545-5.842 0.023-8.356-1.468l0-0-4.145 1.184c-0.171 0.049-0.353 0.051-0.526 0.006s-0.33-0.135-0.456-0.261c-0.126-0.126-0.216-0.284-0.261-0.456s-0.042-0.354 0.006-0.525l1.184-4.145z"></path>
<path fill="none" stroke="" style="" stroke-linejoin="round" stroke-linecap="round" stroke-miterlimit="4" stroke-width="1.3333" d="M18.584 22h-0.004c-1.127 0.002-2.244-0.219-3.285-0.65s-1.988-1.063-2.785-1.86c-0.797-0.797-1.429-1.744-1.86-2.785s-0.651-2.158-0.65-3.285v-0.001c0.003-0.908 0.366-1.778 1.009-2.419s1.515-1 2.423-1M18.584 22l-3.982-11.321c-0.118-0.206-0.288-0.378-0.494-0.497s-0.438-0.182-0.676-0.182c0 0-0 0-0 0M18.584 22c0.906-0.006 1.774-0.37 2.414-1.013s1-1.511 1.003-2.418v-0.002M18.584 22l3.416-3.432M13.432 10c-0 0-0 0-0 0h0zM22 18.568c0-0.237-0.063-0.471-0.182-0.676s-0.291-0.376-0.497-0.494l-2.021-1.155c-0.225-0.128-0.479-0.195-0.738-0.192s-0.512 0.074-0.734 0.208l-1.232 0.739c-0.67-0.372-1.223-0.924-1.594-1.594l0.739-1.232c0.133-0.222 0.205-0.475 0.207-0.734s-0.063-0.514-0.192-0.738l-1.155-2.021 7.398 7.889zM21.241 18.226c0.060 0.104 0.092 0.222 0.092 0.342l-0.343-0.591c0.104 0.060 0.191 0.146 0.251 0.249z"></path>
</symbol>
<symbol id="icon-chect" viewBox="0 0 40 32">
<path fill="none" stroke="#961914" style="stroke: var(--color2, #961914)" stroke-linejoin="round" stroke-linecap="round" stroke-miterlimit="4" stroke-width="8" d="M3.998 16.923l12 11.077 20-24"></path>
</symbol>
<symbol id="icon-arrow" viewBox="0 0 280 32">
<path fill="#ead1d0" style="fill: var(--color3, #ead1d0)" d="M278.708 16.707c0.39-0.391 0.39-1.024 0-1.414l-6.364-6.364c-0.392-0.391-1.024-0.391-1.416 0-0.39 0.391-0.39 1.024 0 1.414l5.658 5.657-5.658 5.657c-0.39 0.391-0.39 1.024 0 1.414 0.392 0.391 1.024 0.391 1.416 0l6.364-6.364zM9.929 17c0.552 0 1-0.448 1-1s-0.448-1-1-1v2zM29.786 15c-0.552 0-1 0.448-1 1s0.448 1 1 1v-2zM49.643 17c0.552 0 1-0.448 1-1s-0.448-1-1-1v2zM69.5 15c-0.552 0-1 0.448-1 1s0.448 1 1 1v-2zM89.357 17c0.552 0 1-0.448 1-1s-0.448-1-1-1v2zM109.214 15c-0.552 0-1 0.448-1 1s0.448 1 1 1v-2zM129.071 17c0.552 0 1-0.448 1-1s-0.448-1-1-1v2zM148.929 15c-0.552 0-1 0.448-1 1s0.448 1 1 1v-2zM168.786 17c0.552 0 1-0.448 1-1s-0.448-1-1-1v2zM188.643 15c-0.552 0-1 0.448-1 1s0.448 1 1 1v-2zM208.5 17c0.552 0 1-0.448 1-1s-0.448-1-1-1v2zM228.358 15c-0.554 0-1 0.448-1 1s0.446 1 1 1v-2zM248.214 17c0.552 0 1-0.448 1-1s-0.448-1-1-1v2zM268.072 15c-0.552 0-1 0.448-1 1s0.448 1 1 1v-2zM0 17h9.929v-2h-9.929v2zM29.786 17h19.857v-2h-19.857v2zM69.5 17h19.857v-2h-19.857v2zM109.214 17h19.857v-2h-19.857v2zM148.929 17h19.857v-2h-19.857v2zM188.643 17h19.857v-2h-19.857v2zM228.358 17h19.856v-2h-19.856v2zM268.072 17h9.928v-2h-9.928v2zM279.414 17.414c0.782-0.781 0.782-2.047 0-2.828l-12.728-12.728c-0.78-0.781-2.048-0.781-2.828 0-0.782 0.781-0.782 2.047 0 2.828l11.314 11.314-11.314 11.314c-0.782 0.781-0.782 2.047 0 2.828 0.78 0.781 2.048 0.781 2.828 0l12.728-12.728zM9.929 18c1.105 0 2-0.895 2-2s-0.895-2-2-2v4zM29.786 14c-1.105 0-2 0.895-2 2s0.895 2 2 2v-4zM49.643 18c1.105 0 2-0.895 2-2s-0.895-2-2-2v4zM69.5 14c-1.105 0-2 0.895-2 2s0.895 2 2 2v-4zM89.357 18c1.105 0 2-0.895 2-2s-0.895-2-2-2v4zM109.214 14c-1.104 0-2 0.895-2 2s0.896 2 2 2v-4zM129.071 18c1.105 0 2-0.895 2-2s-0.895-2-2-2v4zM148.929 14c-1.105 0-2 0.895-2 2s0.895 2 2 2v-4zM168.786 18c1.105 0 2-0.895 2-2s-0.895-2-2-2v4zM188.643 14c-1.104 0-2 0.895-2 2s0.896 2 2 2v-4zM208.5 18c1.104 0 2-0.895 2-2s-0.896-2-2-2v4zM228.358 14c-1.106 0-2 0.895-2 2s0.894 2 2 2v-4zM248.214 18c1.104 0 2-0.895 2-2s-0.896-2-2-2v4zM268.072 14c-1.106 0-2 0.895-2 2s0.894 2 2 2v-4zM0 18h9.929v-4h-9.929v4zM29.786 18h19.857v-4h-19.857v4zM69.5 18h19.857v-4h-19.857v4zM109.214 18h19.857v-4h-19.857v4zM148.929 18h19.857v-4h-19.857v4zM188.643 18h19.857v-4h-19.857v4zM228.358 18h19.856v-4h-19.856v4zM268.072 18h9.928v-4h-9.928v4z"></path>
</symbol>
<symbol id="icon-fot-line" viewBox="0 0 40 32">
<path fill="#fff" style="fill: var(--color1, #fff)" d="M24.082 19.824c-2.127-4.487-4.734-8.698-7.73-12.633-0.457-0.575-1.258 0.23-0.8 0.805 2.95 3.843 5.489 8.008 7.57 12.403 0.297 0.667 1.281 0.092 0.96-0.575z"></path>
<path fill="#fff" style="fill: var(--color1, #fff)" d="M16.169 30.362c-5.26-0.966-10.451-2.393-15.483-4.234-0.686-0.23-0.983 0.874-0.297 1.128 5.031 1.841 10.223 3.245 15.483 4.234 0.732 0.115 1.029-0.989 0.297-1.128z"></path>
<path fill="#fff" style="fill: var(--color1, #fff)" d="M37.186 16.395c1.006-5.131 2.013-10.24 3.019-15.371 0.137-0.713-0.961-1.035-1.098-0.299-1.006 5.131-2.013 10.24-3.019 15.371-0.16 0.713 0.938 1.035 1.098 0.299z"></path>
</symbol>
<symbol id="icon-fot-line1" viewBox="0 0 14 32">
<path fill="#fff" style="fill: var(--color1, #fff)" d="M-2.287 29.775c1.929-0.316 3.753-1.147 5.301-2.332 1.578-1.207 2.892-2.8 3.709-4.617 0.424-0.944 0.714-1.98 0.639-3.021-0.075-1.049-0.515-2.043-1.068-2.927-0.562-0.902-1.276-1.742-2.141-2.368-0.788-0.571-1.757-0.965-2.744-0.862-1.528 0.161-3.002 1.829-2.264 3.37 0.205 0.427 0.542 0.774 0.917 1.057 0.406 0.306 0.871 0.555 1.362 0.692 0.942 0.265 1.886 0.014 2.673-0.537 1.646-1.15 2.552-3.206 2.771-5.153 0.228-2.028-0.298-4.068-1.332-5.816-0.987-1.674-2.411-3.088-4.101-4.052-1.633-0.931-3.527-1.44-5.411-1.305-0.456 0.033-0.912 0.105-1.355 0.211-0.066 0.016-0.040 0.12 0.027 0.102 1.793-0.432 3.68-0.225 5.387 0.455 1.721 0.685 3.241 1.834 4.406 3.269 1.228 1.51 2.087 3.355 2.282 5.302 0.202 1.988-0.296 4.080-1.507 5.686-0.559 0.742-1.301 1.411-2.198 1.704-0.988 0.322-1.99 0.020-2.82-0.555-0.745-0.517-1.354-1.334-1.16-2.285 0.157-0.772 0.748-1.42 1.438-1.768 1.832-0.93 3.798 0.514 4.932 1.879 0.677 0.815 1.256 1.763 1.576 2.779 0.312 0.994 0.282 2.019-0.006 3.014-0.275 0.955-0.744 1.856-1.292 2.681-0.53 0.799-1.154 1.533-1.854 2.186-1.381 1.289-3.057 2.274-4.872 2.803-0.436 0.128-0.879 0.227-1.328 0.301-0.060 0.015-0.033 0.117 0.035 0.106z"></path>
</symbol>
<symbol id="icon-minus" viewBox="0 0 320 32">
<path fill="#961914" style="fill: var(--color2, #961914)" d="M320 16c0 8.837-7.163 16-16 16h-288c-8.837 0-16-7.163-16-16s7.163-16 16-16h288c8.837 0 16 7.163 16 16z"></path>
</symbol>
<symbol id="icon-plus" viewBox="0 0 32 32">
<path fill="#961914" style="fill: var(--color2, #961914)" d="M16 0c0.884 0 1.6 0.716 1.6 1.6v28.8c0 0.884-0.716 1.6-1.6 1.6s-1.6-0.716-1.6-1.6v-28.8c0-0.884 0.716-1.6 1.6-1.6z"></path>
<path fill="#961914" style="fill: var(--color2, #961914)" d="M32 16c0 0.884-0.716 1.6-1.6 1.6h-28.8c-0.884 0-1.6-0.716-1.6-1.6s0.716-1.6 1.6-1.6h28.8c0.884 0 1.6 0.716 1.6 1.6z"></path>
</symbol>
<symbol id="icon-package" viewBox="0 0 28 32">
<path fill="none" stroke="#961914" style="stroke: var(--color2, #961914)" stroke-linejoin="round" stroke-linecap="round" stroke-miterlimit="4" stroke-width="1.7778" d="M13.814 16l-0.147 14.279"></path>
<path fill="none" stroke="#961914" style="stroke: var(--color2, #961914)" stroke-linejoin="round" stroke-linecap="round" stroke-miterlimit="4" stroke-width="1.7778" d="M26.444 22.574v-13.148c0-0.197-0.052-0.39-0.151-0.56s-0.242-0.31-0.413-0.407l-11.667-6.594c-0.167-0.094-0.355-0.144-0.547-0.144s-0.38 0.050-0.547 0.144l-11.667 6.594c-0.171 0.097-0.314 0.237-0.413 0.407s-0.151 0.363-0.151 0.56v13.148c0 0.197 0.052 0.39 0.151 0.56s0.242 0.311 0.413 0.407l11.667 6.594c0.167 0.094 0.355 0.144 0.547 0.144s0.38-0.049 0.547-0.144l11.667-6.594c0.171-0.097 0.314-0.237 0.413-0.407s0.151-0.363 0.151-0.56v0z"></path>
<path fill="none" stroke="#961914" style="stroke: var(--color2, #961914)" stroke-linejoin="round" stroke-linecap="round" stroke-miterlimit="4" stroke-width="1.7778" d="M26.292 8.865l-12.478 7.135-12.772-7.137"></path>
<path fill="none" stroke="#961914" style="stroke: var(--color2, #961914)" stroke-linejoin="round" stroke-linecap="round" stroke-miterlimit="4" stroke-width="1.7778" d="M20.491 18.849v-6.667l-12.886-7.2"></path>
</symbol>
<symbol id="icon-phonecall" viewBox="0 0 32 32">
<path fill="none" stroke="#961914" style="stroke: var(--color2, #961914)" stroke-linejoin="round" stroke-linecap="round" stroke-miterlimit="4" stroke-width="1.6" d="M19.927 5c1.695 0.456 3.241 1.349 4.482 2.591s2.135 2.787 2.591 4.482"></path>
<path fill="none" stroke="#961914" style="stroke: var(--color2, #961914)" stroke-linejoin="round" stroke-linecap="round" stroke-miterlimit="4" stroke-width="1.6" d="M18.892 8.865c1.017 0.274 1.945 0.81 2.689 1.554s1.281 1.672 1.554 2.689"></path>
<path fill="none" stroke="#961914" style="stroke: var(--color2, #961914)" stroke-linejoin="round" stroke-linecap="round" stroke-miterlimit="4" stroke-width="1.6" d="M11.56 15.602c1.037 2.121 2.756 3.832 4.882 4.86 0.156 0.074 0.328 0.106 0.499 0.093s0.337-0.070 0.479-0.167l3.13-2.087c0.138-0.092 0.298-0.149 0.463-0.164s0.332 0.011 0.485 0.077l5.855 2.509c0.199 0.084 0.365 0.231 0.473 0.418s0.153 0.404 0.127 0.619c-0.185 1.448-0.892 2.779-1.987 3.744s-2.505 1.497-3.965 1.497c-4.509 0-8.833-1.791-12.021-4.979s-4.979-7.512-4.979-12.021c0-1.46 0.532-2.869 1.497-3.965s2.296-1.802 3.744-1.987c0.214-0.026 0.432 0.019 0.619 0.127s0.334 0.274 0.418 0.473l2.511 5.86c0.065 0.152 0.091 0.317 0.077 0.481s-0.069 0.322-0.16 0.46l-2.080 3.177c-0.095 0.143-0.151 0.308-0.162 0.479s0.021 0.342 0.095 0.497v0z"></path>
</symbol>
<symbol id="icon-clock" viewBox="0 0 32 32">
<path fill="none" stroke="#961914" style="stroke: var(--color2, #961914)" stroke-linejoin="miter" stroke-linecap="butt" stroke-miterlimit="10" stroke-width="1.6" d="M16 28c6.627 0 12-5.373 12-12s-5.373-12-12-12c-6.627 0-12 5.373-12 12s5.373 12 12 12z"></path>
<path fill="none" stroke="#961914" style="stroke: var(--color2, #961914)" stroke-linejoin="round" stroke-linecap="round" stroke-miterlimit="4" stroke-width="1.6" d="M16 9v7h7"></path>
</symbol>
<symbol id="icon-heart" viewBox="0 0 32 32">
<path fill="none" stroke="#961914" style="stroke: var(--color2, #961914)" stroke-linejoin="round" stroke-linecap="round" stroke-miterlimit="4" stroke-width="1.6" d="M3.214 11.799c-0.009-0.166-0.014-0.332-0.014-0.499 0-1.502 0.521-2.958 1.473-4.12s2.278-1.958 3.751-2.253c1.473-0.295 3.003-0.071 4.329 0.634s2.368 1.848 2.947 3.235v0c0.579-1.386 1.62-2.529 2.947-3.235s2.856-0.929 4.329-0.634 2.798 1.091 3.751 2.253c0.952 1.162 1.473 2.618 1.473 4.12 0 8.5-12.5 15.5-12.5 15.5s-4.993-2.796-8.668-7"></path>
</symbol>
<symbol id="icon-vector7" viewBox="0 0 64 32">
<path fill="none" stroke="#ec7973" style="stroke: var(--color4, #ec7973)" stroke-linejoin="miter" stroke-linecap="round" stroke-miterlimit="4" stroke-width="16" d="M51.815 20.946c-8.926-2.575-18.12-4.078-26.787-7.372-5.39-2.049-9.637-0.109-14.361-5.107"></path>
</symbol>
<symbol id="icon-vector4" viewBox="0 0 77 32">
<path fill="none" stroke="#ec7973" style="stroke: var(--color4, #ec7973)" stroke-linejoin="miter" stroke-linecap="round" stroke-miterlimit="4" stroke-width="19.2" d="M12.505 15.401c11.146 0.212 22.27-0.902 33.339 0.225 6.884 0.701 11.204-2.867 18.232 1.46"></path>
</symbol>
<symbol id="icon-vector6" viewBox="0 0 29 32">
<path fill="none" stroke="#ec7973" style="stroke: var(--color4, #ec7973)" stroke-linejoin="miter" stroke-linecap="round" stroke-miterlimit="4" stroke-width="9.6" d="M23.177 26.145l-17.584-18.605"></path>
</symbol>
<symbol id="icon-vector3" viewBox="0 0 44 32">
<path fill="none" stroke="#ec7973" style="stroke: var(--color4, #ec7973)" stroke-linejoin="miter" stroke-linecap="round" stroke-miterlimit="4" stroke-width="12" d="M7.175 8.914l27.251 16.775"></path>
</symbol>
<symbol id="icon-vector5" viewBox="0 0 12 32">
<path fill="none" stroke="#ec7973" style="stroke: var(--color4, #ec7973)" stroke-linejoin="miter" stroke-linecap="round" stroke-miterlimit="4" stroke-width="7.3846" d="M7.347 25.9c-0.6-7.074-1.779-14.079-2.891-20.977"></path>
</symbol>
<symbol id="icon-vector8" viewBox="0 0 12 32">
<path fill="none" stroke="#ec7973" style="stroke: var(--color4, #ec7973)" stroke-linejoin="miter" stroke-linecap="round" stroke-miterlimit="4" stroke-width="7.3846" d="M7.347 25.9c-0.6-7.074-1.779-14.079-2.891-20.977"></path>
</symbol>
<symbol id="icon-vector2" viewBox="0 0 19 32">
<path fill="none" stroke="#ec7973" style="stroke: var(--color4, #ec7973)" stroke-linejoin="miter" stroke-linecap="round" stroke-miterlimit="4" stroke-width="8" d="M4.323 6.664c2.612 7.234 5.809 14.233 8.907 21.14"></path>
</symbol>
<symbol id="icon-vector1" viewBox="0 0 208 32">
<path fill="none" stroke="#ec7973" style="stroke: var(--color4, #ec7973)" stroke-linejoin="miter" stroke-linecap="round" stroke-miterlimit="4" stroke-width="8" d="M4.323 6.664c2.612 7.234 5.809 14.233 8.907 21.14"></path>
</symbol>
<symbol id="icon-Smiley" viewBox="0 0 32 32">
<path fill="none" stroke="#961914" style="stroke: var(--color2, #961914)" stroke-linejoin="round" stroke-linecap="round" stroke-miterlimit="4" stroke-width="1.6" d="M16 28c6.627 0 12-5.373 12-12s-5.373-12-12-12c-6.627 0-12 5.373-12 12s5.373 12 12 12z"></path>
<path fill="none" stroke="#961914" style="stroke: var(--color2, #961914)" stroke-linejoin="round" stroke-linecap="round" stroke-miterlimit="4" stroke-width="1.6" d="M21.197 19c-0.527 0.912-1.285 1.669-2.197 2.195s-1.947 0.803-3 0.803-2.088-0.277-3-0.803c-0.912-0.526-1.67-1.283-2.197-2.195"></path>
<path fill="#961914" style="fill: var(--color2, #961914)" d="M11.5 15c0.828 0 1.5-0.672 1.5-1.5s-0.672-1.5-1.5-1.5c-0.828 0-1.5 0.672-1.5 1.5s0.672 1.5 1.5 1.5z"></path>
<path fill="#961914" style="fill: var(--color2, #961914)" d="M20.5 15c0.828 0 1.5-0.672 1.5-1.5s-0.672-1.5-1.5-1.5c-0.828 0-1.5 0.672-1.5 1.5s0.672 1.5 1.5 1.5z"></path>
</symbol>
<symbol id="icon-RocketLaunch" viewBox="0 0 32 32">
<path fill="none" stroke="#961914" style="stroke: var(--color2, #961914)" stroke-linejoin="round" stroke-linecap="round" stroke-miterlimit="4" stroke-width="1.6" d="M11.757 23.071c-1.414 4.243-7.071 4.243-7.071 4.243s0-5.657 4.243-7.071"></path>
<path fill="none" stroke="#961914" style="stroke: var(--color2, #961914)" stroke-linejoin="round" stroke-linecap="round" stroke-miterlimit="4" stroke-width="1.6" d="M24.485 13.172l-8.485 8.485-5.657-5.657 8.485-8.485c3.213-3.213 6.426-3.182 7.796-2.977 0.211 0.031 0.406 0.13 0.557 0.281s0.249 0.346 0.281 0.557c0.204 1.37 0.236 4.583-2.977 7.796z"></path>
<path fill="none" stroke="#961914" style="stroke: var(--color2, #961914)" stroke-linejoin="round" stroke-linecap="round" stroke-miterlimit="4" stroke-width="1.6" d="M23.071 14.586v8.071c0 0.131-0.026 0.261-0.076 0.383s-0.124 0.232-0.217 0.324l-4.043 4.043c-0.128 0.128-0.288 0.219-0.464 0.263s-0.36 0.040-0.533-0.013-0.329-0.151-0.451-0.285c-0.122-0.134-0.205-0.299-0.24-0.476l-1.048-5.239"></path>
<path fill="none" stroke="#961914" style="stroke: var(--color2, #961914)" stroke-linejoin="round" stroke-linecap="round" stroke-miterlimit="4" stroke-width="1.6" d="M17.414 8.929h-8.071c-0.131 0-0.261 0.026-0.383 0.076s-0.232 0.124-0.324 0.217l-4.043 4.043c-0.128 0.128-0.219 0.288-0.263 0.464s-0.040 0.36 0.013 0.533 0.151 0.329 0.285 0.451c0.134 0.122 0.299 0.205 0.476 0.24l5.239 1.048"></path>
</symbol>
<symbol id="icon-Heartbeat" viewBox="0 0 32 32">
<path fill="none" stroke="#961914" style="stroke: var(--color2, #961914)" stroke-linejoin="round" stroke-linecap="round" stroke-miterlimit="4" stroke-width="1.6" d="M4 16h5l2-3 4 6 2-3h3"></path>
<path fill="none" stroke="#961914" style="stroke: var(--color2, #961914)" stroke-linejoin="round" stroke-linecap="round" stroke-miterlimit="4" stroke-width="1.6" d="M3.514 11.999c-0.009-0.166-0.014-0.332-0.014-0.499 0-1.502 0.521-2.958 1.473-4.12s2.278-1.958 3.751-2.253c1.473-0.295 3.003-0.071 4.329 0.634s2.368 1.848 2.947 3.235v0c0.579-1.386 1.62-2.529 2.947-3.235s2.856-0.929 4.329-0.634 2.798 1.091 3.751 2.253c0.952 1.162 1.473 2.618 1.473 4.12 0 8.5-12.5 15.5-12.5 15.5s-4.993-2.796-8.668-7"></path>
</symbol>
<symbol id="icon-Leaf" viewBox="0 0 32 32">
<path fill="none" stroke="#961914" style="stroke: var(--color2, #961914)" stroke-linejoin="round" stroke-linecap="round" stroke-miterlimit="4" stroke-width="1.6" d="M20 12l-17 17"></path>
<path fill="none" stroke="#961914" style="stroke: var(--color2, #961914)" stroke-linejoin="round" stroke-linecap="round" stroke-miterlimit="4" stroke-width="1.6" d="M5.848 26.152c-0.959-2.829-1.108-5.87-0.429-8.78s2.158-5.571 4.271-7.683c2.112-2.112 4.774-3.592 7.683-4.271s5.95-0.53 8.78 0.429c0.959 2.829 1.108 5.87 0.429 8.78s-2.158 5.571-4.271 7.683c-2.112 2.112-4.774 3.592-7.683 4.271s-5.95 0.53-8.78-0.429v0z"></path>
</symbol>
<symbol id="icon-fruits" viewBox="0 0 36 32">
<path fill="#961914" style="fill: var(--color2, #961914)" d="M34.49 17.469c-0.317-0.663-0.703-1.369-1.133-2.076-1.156-1.899-2.040-3.666-2.743-5.411-0.068-0.177-0.159-0.353-0.227-0.53-0.136-0.265-0.453-0.353-0.703-0.243-0.272 0.133-0.363 0.442-0.249 0.685 0.068 0.155 0.136 0.287 0.204 0.442 0.703 1.811 1.632 3.622 2.811 5.565 0.431 0.685 0.793 1.369 1.088 1.988 0.657 1.347 0.975 2.473 0.975 3.335 0 5.344-4.647 9.717-10.359 9.717-1.791 0-3.536-0.442-5.1-1.259 0.907-0.773 1.7-1.656 2.38-2.65 1.179-1.767 1.95-3.821 2.221-5.985 0.408-3.423-0.476-6.537-2.29-7.95-1.134-0.883-2.29-1.126-3.4-1.038 0.249-0.574 0.499-1.148 0.726-1.723 0.408-1.038 1.133-1.921 2.085-2.562 0.997-0.663 2.153-1.016 3.378-1.016 0.159 0 0.295 0 0.431 0.022 1.405 0.088 2.72 0.663 3.718 1.612 0.204 0.199 0.544 0.199 0.748 0s0.204-0.53 0-0.729c-1.156-1.104-2.698-1.767-4.33-1.877 0.113-1.413 0.771-2.937 2.335-3.489 0.272-0.088 0.408-0.398 0.317-0.663s-0.408-0.398-0.68-0.309c-2.040 0.729-2.901 2.694-3.015 4.461-1.292 0.066-2.471 0.464-3.491 1.148-1.133 0.751-1.995 1.811-2.493 3.048-0.295 0.751-0.657 1.546-1.043 2.341-1.088 0.287-2.085 0.839-2.924 1.281-0.499 0.265-0.975 0.53-1.36 0.663-0.068-0.861-0.295-1.745-0.612-2.562 2.539-0.243 4.896-1.568 6.37-3.622 1.632-2.231 2.063-5.124 1.179-7.729-0.068-0.221-0.272-0.353-0.499-0.353-2.811 0.066-5.463 1.435-7.095 3.666-1.156 1.612-1.723 3.556-1.609 5.477-0.499-0.486-1.043-0.817-1.587-0.95-0.295-0.088-0.567 0.088-0.657 0.353-0.068 0.265 0.091 0.552 0.385 0.64 1.564 0.42 2.834 2.937 3.060 5.057-0.181-0.066-0.408-0.177-0.703-0.331-0.181-0.088-0.385-0.199-0.589-0.309-1.224-0.663-2.72-1.458-4.33-1.546-1.201-0.066-2.312 0.287-3.287 1.060-1.337 1.016-2.199 3.003-2.358 5.411-0.272 3.754 1.111 7.597 3.718 10.291 0.204 0.199 0.544 0.221 0.748 0.022s0.227-0.53 0.023-0.729c-2.403-2.496-3.695-6.051-3.446-9.496 0.159-2.12 0.884-3.865 1.972-4.704 0.793-0.596 1.632-0.883 2.584-0.817 1.36 0.066 2.698 0.773 3.876 1.413 0.227 0.11 0.431 0.221 0.635 0.331 0.34 0.177 0.612 0.309 0.861 0.398 0.317 0.11 0.612 0.177 0.861 0.177 0.657 0 1.428-0.398 2.38-0.928 1.881-0.994 4.239-2.275 6.438-0.574 1.519 1.17 2.267 3.975 1.904 7.023-0.249 1.988-0.952 3.909-2.040 5.543-1.27 1.899-3.015 3.335-5.191 4.329-0.476 0.221-0.997 0.11-1.632-0.309-0.521-0.353-1.111-0.53-1.723-0.574-0.023 0-0.045 0-0.068 0-0.68-0.022-1.36 0.177-1.927 0.574-0.635 0.42-1.156 0.508-1.632 0.309-0.839-0.375-1.632-0.839-2.358-1.369-0.227-0.177-0.567-0.132-0.748 0.11-0.181 0.221-0.136 0.552 0.113 0.729 0.771 0.574 1.632 1.082 2.539 1.48 0.317 0.154 0.635 0.199 0.952 0.199 0.68 0 1.292-0.287 1.723-0.596 0.385-0.265 0.839-0.398 1.315-0.375 0.023 0 0.045 0 0.068 0 0.408 0.022 0.816 0.154 1.156 0.375 0.657 0.442 1.632 0.861 2.675 0.398 0.839-0.375 1.632-0.839 2.358-1.347 1.791 1.038 3.854 1.59 5.985 1.59 6.302 0 11.402-4.814 11.402-10.733 0-1.038-0.363-2.319-1.065-3.798zM12.116 10.623l3.060-4.218 2.562 0.331c-0.136 0.243-0.295 0.508-0.476 0.751-1.201 1.678-3.083 2.805-5.146 3.136zM16.061 3.401l-0.703-1.502c0.725-0.375 1.519-0.64 2.358-0.773l-1.655 2.275zM18.577 1.723c0.249 1.347 0.113 2.738-0.363 4.019l-2.335-0.287 2.698-3.732zM14.451 2.451l0.929 1.943-0.861 1.148-0.703 0.95-1.065-2.473c0.476-0.596 1.043-1.148 1.7-1.568zM12.048 5.079l1.043 2.407-1.836 2.54c-0.295-1.678-0.023-3.445 0.793-4.947z"></path>
</symbol>
<symbol id="icon-nuts" viewBox="0 0 30 32">
<path fill="#961914" style="fill: var(--color2, #961914)" d="M11.036 13.554c-0.468-1.639-1.895-2.762-3.545-2.762s-3.077 1.124-3.545 2.762c-1.182 0.773-2.163 1.966-2.854 3.441-0.713 1.545-1.092 3.347-1.092 5.244 0 2.575 0.691 4.986 1.962 6.742 1.382 1.943 3.344 2.996 5.529 2.996s4.147-1.053 5.529-2.996c0.156-0.211 0.111-0.492-0.089-0.656s-0.468-0.117-0.624 0.094c-1.204 1.685-2.921 2.622-4.816 2.622s-3.612-0.936-4.816-2.622c-1.159-1.615-1.784-3.816-1.784-6.18 0-1.756 0.334-3.441 1.003-4.822 0.647-1.381 1.561-2.458 2.675-3.137 0.111-0.070 0.178-0.164 0.201-0.304 0.312-1.311 1.427-2.247 2.72-2.247s2.43 0.913 2.72 2.247c0.022 0.117 0.111 0.234 0.201 0.304 1.115 0.679 2.029 1.779 2.675 3.137 0.647 1.404 1.003 3.067 1.003 4.822 0 1.568-0.268 3.067-0.803 4.377-0.089 0.234 0 0.515 0.245 0.609 0.223 0.094 0.49 0 0.58-0.258 0.58-1.428 0.869-3.043 0.869-4.729 0-1.896-0.379-3.722-1.092-5.244-0.669-1.475-1.672-2.669-2.854-3.441z"></path>
<path fill="#961914" style="fill: var(--color2, #961914)" d="M4.147 19.312c-0.245-0.070-0.49 0.070-0.557 0.328-0.223 0.796-0.334 1.685-0.334 2.598 0 3.675 1.784 6.32 4.236 6.32s4.236-2.669 4.236-6.32c0-3.652-1.784-6.32-4.236-6.32-1.115 0-2.14 0.562-2.898 1.592-0.156 0.211-0.111 0.492 0.067 0.656 0.201 0.164 0.468 0.117 0.624-0.094 0.602-0.796 1.36-1.217 2.207-1.217 1.94 0 3.344 2.271 3.344 5.384s-1.405 5.384-3.344 5.384-3.344-2.271-3.344-5.384c0-0.843 0.111-1.639 0.312-2.341 0.067-0.257-0.089-0.515-0.312-0.585z"></path>
<path fill="#961914" style="fill: var(--color2, #961914)" d="M28.514 2.996c-1.382-1.943-3.344-2.996-5.529-2.996s-4.169 1.053-5.529 2.996c-0.892 1.241-1.516 2.832-1.783 4.588-0.067 0.234 0.111 0.492 0.357 0.538 0.245 0.023 0.468-0.14 0.513-0.398 0.245-1.592 0.803-3.043 1.627-4.167 1.204-1.685 2.898-2.622 4.816-2.622 1.895 0 3.612 0.936 4.816 2.622 1.159 1.615 1.784 3.816 1.784 6.18 0 1.756-0.334 3.441-1.003 4.822-0.647 1.381-1.561 2.458-2.675 3.137-0.111 0.070-0.178 0.164-0.201 0.304-0.312 1.311-1.427 2.247-2.72 2.247s-2.43-0.913-2.72-2.247c-0.045-0.117-0.112-0.211-0.223-0.281-1.115-0.679-2.029-1.779-2.675-3.137-0.647-1.405-0.981-3.090-0.981-4.846 0-0.258-0.201-0.468-0.446-0.468s-0.446 0.211-0.446 0.468c0 1.896 0.379 3.722 1.092 5.244 0.691 1.475 1.672 2.669 2.854 3.441 0.468 1.639 1.895 2.762 3.545 2.762s3.077-1.124 3.545-2.762c1.182-0.773 2.185-1.966 2.854-3.441 0.713-1.522 1.092-3.347 1.092-5.244 0-2.575-0.713-4.963-1.962-6.742z"></path>
<path fill="#961914" style="fill: var(--color2, #961914)" d="M26.463 12.243c0.245 0.047 0.491-0.094 0.535-0.351 0.156-0.679 0.223-1.405 0.223-2.154 0-3.675-1.784-6.32-4.236-6.32s-4.258 2.669-4.258 6.32 1.784 6.32 4.236 6.32c1.315 0 2.475-0.773 3.277-2.154 0.134-0.234 0.045-0.515-0.156-0.632-0.223-0.14-0.491-0.047-0.602 0.164-0.624 1.1-1.516 1.709-2.497 1.709-1.939 0-3.344-2.271-3.344-5.384s1.404-5.384 3.344-5.384c1.94 0 3.344 2.271 3.344 5.384 0 0.679-0.067 1.334-0.201 1.943-0.067 0.234 0.089 0.492 0.334 0.538z"></path>
<path fill="#961914" style="fill: var(--color2, #961914)" d="M6.532 24.345c0-0.258-0.201-0.468-0.446-0.468s-0.446 0.211-0.446 0.468c0 0.257 0.201 0.468 0.446 0.468s0.446-0.211 0.446-0.468z"></path>
<path fill="#961914" style="fill: var(--color2, #961914)" d="M7.87 26.124c0.246 0 0.446-0.21 0.446-0.468s-0.2-0.468-0.446-0.468c-0.246 0-0.446 0.21-0.446 0.468s0.2 0.468 0.446 0.468z"></path>
<path fill="#961914" style="fill: var(--color2, #961914)" d="M8.65 19.827c0.246 0 0.446-0.21 0.446-0.468s-0.2-0.468-0.446-0.468-0.446 0.21-0.446 0.468c0 0.258 0.2 0.468 0.446 0.468z"></path>
<path fill="#961914" style="fill: var(--color2, #961914)" d="M21.113 7.655c0 0.258 0.201 0.468 0.446 0.468s0.446-0.211 0.446-0.468-0.201-0.468-0.446-0.468c-0.245 0-0.446 0.211-0.446 0.468z"></path>
<path fill="#961914" style="fill: var(--color2, #961914)" d="M23.342 6.812c0.246 0 0.446-0.21 0.446-0.468s-0.2-0.468-0.446-0.468c-0.246 0-0.446 0.21-0.446 0.468s0.2 0.468 0.446 0.468z"></path>
<path fill="#961914" style="fill: var(--color2, #961914)" d="M24.145 13.109c0.246 0 0.446-0.21 0.446-0.468s-0.2-0.468-0.446-0.468c-0.246 0-0.446 0.21-0.446 0.468s0.2 0.468 0.446 0.468z"></path>
</symbol>
<symbol id="icon-by-products" viewBox="0 0 34 32">
<path fill="#961914" style="fill: var(--color2, #961914)" d="M32.992 9.811c0.454-0.613 0.693-1.317 0.693-2.067 0-1.999-1.696-3.611-3.798-3.611-0.788 0-1.529 0.227-2.174 0.659-0.645-0.431-1.386-0.659-2.174-0.659s-1.529 0.227-2.174 0.659c-0.621-0.409-1.386-0.659-2.174-0.659s-1.529 0.227-2.174 0.659c-0.645-0.431-1.41-0.659-2.174-0.659-0.812 0-1.553 0.25-2.174 0.659-0.645-0.431-1.386-0.659-2.174-0.659s-1.529 0.227-2.174 0.659v-3.021l-3.106-1.771h-1.242v4.792c-1.003 0.681-1.625 1.771-1.625 2.952 0 1.999 1.696 3.611 3.798 3.611 0.788 0 1.529-0.227 2.174-0.659 0.645 0.431 1.386 0.659 2.174 0.659s1.553-0.227 2.174-0.659c0.621 0.431 1.386 0.659 2.174 0.659s1.529-0.227 2.174-0.659c0.621 0.431 1.386 0.659 2.174 0.659s1.529-0.227 2.174-0.659c0.621 0.431 1.362 0.659 2.15 0.659 0.191 0 0.406-0.023 0.597-0.045-0.024 0.182-0.048 0.363-0.048 0.568s0.024 0.386 0.048 0.568c-0.955-0.136-1.959 0.068-2.771 0.613-0.597-0.431-1.362-0.659-2.15-0.659s-1.529 0.227-2.174 0.659c-0.645-0.431-1.41-0.659-2.174-0.659-0.788 0-1.529 0.227-2.174 0.659-0.621-0.431-1.362-0.659-2.174-0.659-0.788 0-1.553 0.227-2.174 0.659-0.645-0.431-1.386-0.659-2.174-0.659s-1.529 0.227-2.174 0.659c-0.645-0.431-1.386-0.659-2.174-0.659-2.102 0-3.798 1.612-3.798 3.611 0 0.772 0.239 1.476 0.693 2.067-0.454 0.59-0.693 1.317-0.693 2.067s0.239 1.453 0.693 2.067c-0.43 0.568-0.693 1.294-0.693 2.044 0 1.999 1.696 3.611 3.798 3.611 0.788 0 1.553-0.25 2.174-0.659 0.645 0.431 1.386 0.659 2.174 0.659s1.529-0.227 2.174-0.659c0.645 0.431 1.386 0.659 2.174 0.659s1.553-0.25 2.174-0.659c0.645 0.431 1.386 0.659 2.174 0.659s1.529-0.227 2.174-0.659c0.621 0.409 1.386 0.659 2.174 0.659s1.529-0.227 2.174-0.659v3.021l3.106 1.771h1.242v-4.792c1.003-0.681 1.624-1.771 1.624-2.952 0-1.999-1.696-3.611-3.798-3.611-0.788 0-1.529 0.227-2.174 0.659-0.645-0.431-1.409-0.659-2.174-0.659-0.788 0-1.529 0.227-2.174 0.659-0.621-0.409-1.362-0.659-2.174-0.659-0.788 0-1.529 0.227-2.174 0.659-0.645-0.431-1.386-0.659-2.174-0.659s-1.529 0.227-2.174 0.659c-0.645-0.431-1.386-0.659-2.174-0.659-0.191 0-0.406 0.023-0.597 0.045 0.024-0.182 0.048-0.363 0.048-0.568 0-0.182-0.024-0.386-0.048-0.568 0.191 0.023 0.382 0.045 0.597 0.045 0.812 0 1.553-0.25 2.174-0.659 0.621 0.454 1.386 0.681 2.174 0.681s1.529-0.227 2.174-0.659c0.621 0.409 1.386 0.659 2.174 0.659s1.529-0.227 2.174-0.659c0.645 0.431 1.386 0.659 2.174 0.659s1.529-0.227 2.174-0.659c0.621 0.409 1.386 0.659 2.174 0.659 0.812 0 1.553-0.25 2.174-0.659 0.645 0.431 1.386 0.659 2.174 0.659 2.102 0 3.798-1.612 3.798-3.611 0-0.749-0.239-1.454-0.693-2.067 0.454-0.613 0.693-1.317 0.693-2.067-0.024-0.772-0.263-1.476-0.693-2.067zM31.893 14.285c0.454 0.477 0.693 1.090 0.693 1.726 0 1.431-1.218 2.589-2.723 2.589-0.478 0-0.956-0.136-1.362-0.341 0.502-0.613 0.812-1.385 0.812-2.226h-1.075c0 1.431-1.218 2.589-2.724 2.589-1.147 0-2.174-0.681-2.556-1.726l-1.027 0.318c0.143 0.386 0.334 0.727 0.597 1.022-0.98 0.522-2.293 0.432-3.154-0.318l-0.358-0.295-0.382 0.295c-0.478 0.431-1.123 0.659-1.792 0.659-1.147 0-2.15-0.681-2.556-1.703l-1.027 0.363c0.143 0.363 0.334 0.704 0.597 0.999-0.836 0.432-1.887 0.432-2.7 0 0.478-0.613 0.788-1.385 0.788-2.226h-1.075c0 1.431-1.218 2.589-2.723 2.589-0.358 0-0.693-0.068-1.003-0.182-0.311-0.545-0.764-0.999-1.314-1.34l-0.597 0.863c0.788 0.477 1.266 1.295 1.266 2.18 0 0.341-0.072 0.659-0.191 0.954-1.171 0.613-1.983 1.794-1.983 3.157h1.075c0-1.431 1.218-2.589 2.723-2.589 0.669 0 1.314 0.227 1.816 0.659l0.358 0.318 0.358-0.318c0.884-0.681 2.198-0.795 3.201-0.273-0.526 0.636-0.812 1.408-0.812 2.226h1.075c0-0.727 0.334-1.431 0.908-1.93 0.502-0.409 1.147-0.636 1.816-0.636 1.505 0 2.723 1.158 2.723 2.589h1.075c0-0.84-0.311-1.612-0.812-2.226 0.98-0.522 2.294-0.431 3.177 0.295l0.358 0.318 0.358-0.318c0.502-0.431 1.147-0.659 1.816-0.659 1.505 0 2.723 1.158 2.723 2.589 0 0.908-0.525 1.771-1.362 2.226l-0.263 0.159v4.247l-2.174-1.249v-2.998l-0.263-0.159c-0.167-0.091-0.311-0.204-0.454-0.318l-0.358-0.318-0.358 0.318c-0.502 0.431-1.147 0.659-1.816 0.659-1.123 0-2.15-0.659-2.532-1.658l-1.027 0.363c0.143 0.341 0.334 0.659 0.573 0.954-0.836 0.431-1.887 0.431-2.7 0 0.263-0.318 0.454-0.659 0.597-1.045l-1.075-0.341c-0.382 1.045-1.409 1.726-2.556 1.726-0.669 0-1.314-0.227-1.816-0.659l-0.358-0.318-0.358 0.318c-0.86 0.727-2.174 0.84-3.153 0.295 0.263-0.318 0.454-0.659 0.597-1.045l-1.027-0.341c-0.382 1.045-1.409 1.726-2.556 1.726-1.505 0-2.723-1.158-2.723-2.589s1.218-2.589 2.723-2.589v-0.999c-0.884 0-1.696 0.295-2.341 0.772-0.239-0.386-0.358-0.84-0.358-1.294s0.119-0.908 0.358-1.295c0.502 0.363 1.075 0.613 1.744 0.727l0.167-1.022c-1.338-0.182-2.317-1.249-2.317-2.521 0-1.431 1.218-2.589 2.723-2.589 0.669 0 1.314 0.227 1.816 0.659l0.358 0.318 0.358-0.318c0.86-0.727 2.174-0.84 3.153-0.295-0.239 0.295-0.43 0.636-0.573 1.022l1.027 0.341c0.382-1.022 1.409-1.726 2.556-1.726 1.505 0 2.723 1.158 2.723 2.589h1.075c0-0.84-0.311-1.612-0.812-2.226 0.979-0.522 2.293-0.431 3.153 0.295l0.358 0.318 0.382-0.318c0.502-0.431 1.147-0.659 1.816-0.659 1.481 0 2.699 1.158 2.699 2.589h1.075c0-0.84-0.311-1.612-0.812-2.226 0.717-0.386 1.601-0.454 2.389-0.159 0.143 0.227 0.311 0.454 0.502 0.659l0.812-0.681c-0.454-0.477-0.693-1.090-0.693-1.726 0-0.341 0.072-0.659 0.191-0.977 0.239-0.136 0.478-0.295 0.693-0.477l-0.717-0.772c-0.502 0.431-1.147 0.659-1.816 0.659-1.147 0-2.174-0.681-2.556-1.726l-1.027 0.363c0.143 0.386 0.334 0.727 0.597 1.022-0.98 0.522-2.293 0.431-3.154-0.295l-0.358-0.318-0.382 0.318c-0.86 0.727-2.174 0.818-3.153 0.295 0.239-0.295 0.454-0.636 0.597-1.022l-1.027-0.341c-0.382 1.022-1.409 1.726-2.556 1.726-0.669 0-1.314-0.227-1.816-0.659l-0.358-0.318-0.358 0.318c-0.502 0.409-1.147 0.659-1.816 0.659-1.505 0-2.723-1.158-2.723-2.589 0-0.908 0.526-1.771 1.362-2.226l0.263-0.159v-4.247l2.174 1.249v2.998l0.263 0.159c0.167 0.091 0.311 0.204 0.454 0.318l0.382 0.295 0.358-0.318c0.86-0.727 2.174-0.818 3.177-0.295-0.526 0.613-0.812 1.385-0.812 2.226h1.075c0-1.431 1.218-2.589 2.723-2.589 0.669 0 1.314 0.227 1.816 0.659l0.358 0.318 0.358-0.318c0.502-0.431 1.147-0.659 1.816-0.659 1.481 0 2.699 1.158 2.699 2.589h1.075c0-0.84-0.311-1.612-0.812-2.226 0.98-0.522 2.293-0.431 3.177 0.295l0.358 0.318 0.358-0.318c0.502-0.431 1.147-0.659 1.816-0.659 1.505 0 2.723 1.158 2.723 2.589 0 0.454-0.143 0.908-0.358 1.295-0.645-0.477-1.457-0.772-2.341-0.772v1.022c1.505 0 2.723 1.158 2.723 2.589 0 0.636-0.239 1.249-0.693 1.726l-0.334 0.341 0.311 0.341z"></path>
</symbol>
<symbol id="icon-liver" viewBox="0 0 43 32">
<path fill="#961914" style="fill: var(--color2, #961914)" d="M29.087 0.762c-0.572 0-0.963 0.431-0.963 1.060s0.391 1.060 0.963 1.060c6.414 0 11.653 0.199 11.653 1.921 0 4.174-9.605 8.845-15.236 11.528-0.692-0.629-1.174-2.12-1.174-3.313s0.391-2.253 1.054-2.981c1.054-1.060 1.656-2.783 1.656-4.472 0-2.021-0.964-3.843-2.62-4.704-0.090-0.099-0.301-0.099-0.391-0.099-1.325-0.133-2.8-0.232-4.155-0.331-2.228-0.232-4.547-0.431-6.685-0.431-6.293 0-9.395 3.081-10.96 5.665-1.054 1.789-2.228 5.101-2.228 8.116 0 2.882 1.174 6.625 2.048 9.607 0.181 0.53 0.301 1.060 0.482 1.491 0.181 0.629 0.391 1.259 0.482 1.789 0.873 2.981 1.445 5.333 4.065 5.333 1.445 0 3.101-1.723 5.902-4.803 1.867-2.021 4.005-4.24 5.36-5.002 0.964-0.53 2.138-1.060 3.402-1.59 0.482-0.232 0.663-0.861 0.482-1.391s-0.783-0.762-1.265-0.53c-1.265 0.629-2.439 1.159-3.402 1.59-1.746 0.861-3.884 3.213-5.902 5.433-1.566 1.623-3.884 4.174-4.577 4.174-0.964 0-1.355-0.762-2.138-3.843-0.181-0.53-0.271-1.159-0.482-1.822-0.181-0.53-0.301-1.060-0.482-1.59-0.873-2.882-1.927-6.393-1.927-8.845 0-2.783 1.174-5.665 1.837-6.824 1.837-3.213 5.028-4.836 9.395-4.836 2.047 0 4.366 0.199 6.594 0.431 1.355 0.099 2.71 0.199 4.065 0.331 0.873 0.53 1.355 1.491 1.355 2.683s-0.391 2.253-1.054 2.981c-1.054 1.060-1.626 2.749-1.626 4.472 0 1.59 0.692 4.373 2.62 5.433 0.301 0.099 0.572 0.099 0.783 0 8.34-4.041 16.681-8.414 16.681-13.648-0.030-3.843-4.968-4.041-13.61-4.041z"></path>
</symbol>
<symbol id="icon-vegetables" viewBox="0 0 32 32">
<path fill="#961914" style="fill: var(--color2, #961914)" d="M32 18.041c0-2.239-1.091-4.402-2.916-5.738-0.376-0.282-0.828-0.433-1.298-0.433-0.583 0-1.129 0.226-1.524 0.621-0.075-0.056-0.151-0.132-0.226-0.188-0.282-0.226-0.621-0.357-0.978-0.395l0.226-2.502c0-0.056 0-0.113 0-0.188 0-1.11-0.903-1.994-1.994-1.994h-0.132c-1.11 0-1.994 0.903-1.994 1.994 0 0.056 0 0.113 0 0.188l0.226 2.521c-0.32 0.056-0.64 0.188-0.903 0.395-0.094 0.075-0.169 0.15-0.263 0.226-0.038-0.056-0.094-0.094-0.15-0.132 0.038-0.188 0.056-0.376 0.056-0.546 0-0.658-0.207-1.279-0.583-1.806 0.376-0.527 0.583-1.148 0.583-1.806 0-1.768-1.486-3.198-3.273-3.085-0.339-0.941-1.11-1.674-2.051-1.938-0.64-0.79-1.58-1.223-2.596-1.166-0.433-1.223-1.58-2.069-2.916-2.069-1.129 0-2.145 0.602-2.69 1.543-1.354 0.056-2.54 1.016-2.878 2.333-1.599 0.602-2.69 2.145-2.69 3.857 0 1.373 0.677 2.653 1.806 3.405-0.169 0.395-0.263 0.828-0.263 1.242 0 0.922 0.414 1.787 1.129 2.37-0.056 0.245-0.094 0.489-0.094 0.734 0 1.58 1.185 2.897 2.728 3.066l1.148 3.198c-0.583 0.433-1.091 0.978-1.467 1.58l-2.709-0.602c-0.094-0.019-0.207-0.038-0.32-0.038-0.79 0-1.449 0.64-1.449 1.448v0.207c0 0.15 0.019 0.282 0.075 0.414h-0.075c-0.847 0.019-1.543 0.715-1.543 1.561s0.696 1.543 1.543 1.543h0.075c-0.038 0.132-0.075 0.263-0.075 0.414v0.207c0 0.79 0.64 1.448 1.449 1.448 0.113 0 0.207-0.019 0.32-0.038l2.709-0.602c0.997 1.618 2.784 2.709 4.816 2.709h0.113c0.282 0 0.583-0.019 0.865-0.075l17.703-2.728c1.43-0.226 2.483-1.43 2.483-2.897 0-1.166-0.677-2.164-1.674-2.634 1.072-1.279 1.674-2.897 1.674-4.571v-1.054zM25.416 13.131c1.543 1.185 2.464 3.048 2.464 5.023v1.9c0 1.053-0.263 2.088-0.752 3.010l-4.139-0.64c-0.169-0.752-0.263-1.505-0.263-2.276v-2.107c0-0.527 0.056-1.035 0.132-1.561 0.132 0.019 0.245 0.019 0.376 0.019 1.467 0 2.577-0.658 2.577-1.543 0-0.489-0.339-0.922-0.922-1.204l0.075-0.828c0.15 0.038 0.301 0.094 0.452 0.207zM23.158 8.259h0.132c0.527 0 0.96 0.433 0.96 0.959 0 0.038 0 0.056 0 0.094l-0.47 5.155 0.395 0.132c0.451 0.15 0.602 0.339 0.602 0.376 0 0.132-0.546 0.508-1.543 0.508s-1.543-0.395-1.543-0.508c0-0.038 0.151-0.226 0.602-0.376l0.395-0.132-0.489-5.155c0-0.038 0-0.056 0-0.094 0-0.527 0.433-0.959 0.959-0.959zM21.484 12.943l0.075 0.809c-0.583 0.282-0.922 0.715-0.922 1.204 0 0.564 0.47 1.035 1.185 1.317-0.094 0.583-0.15 1.185-0.15 1.768v2.088c0 0.715 0.075 1.411 0.207 2.107l-3.048-0.47c-0.169-0.564-0.263-1.148-0.263-1.75v-1.862c0-1.956 0.941-3.838 2.521-5.023 0.132-0.094 0.263-0.15 0.395-0.188zM15.915 21.333c-0.282-0.715-0.433-1.448-0.433-2.22v-1.072c0-1.919 0.941-3.762 2.502-4.91 0.188-0.15 0.433-0.226 0.677-0.226 0.32 0 0.602 0.132 0.809 0.339-1.223 1.336-1.919 3.085-1.919 4.91v1.9c0 0.527 0.056 1.053 0.169 1.58l-1.806-0.301zM15.953 5.832l0.094 0.527 0.527-0.113c0.169-0.038 0.32-0.056 0.452-0.056 1.148 0 2.069 0.922 2.069 2.069 0 0.546-0.207 1.053-0.583 1.449l-0.357 0.357 0.357 0.357c0.376 0.395 0.583 0.903 0.583 1.449 0 0.019 0 0.038 0 0.038-0.151-0.019-0.282-0.038-0.433-0.038-0.47 0-0.922 0.15-1.298 0.433-0.94 0.677-1.674 1.599-2.182 2.615-0.188-0.602-0.395-1.185-0.602-1.75 0.47-2.521 2.239-3.969 2.257-3.988l-0.32-0.414-0.32-0.395c-0.075 0.056-1.467 1.204-2.258 3.255-1.072-2.464-2.088-4.064-2.145-4.158l-0.884 0.546c0.019 0.019 0.809 1.26 1.712 3.236-1.524-0.583-3.292-0.414-3.386-0.414l0.094 1.035c0.771-0.075 2.972-0.038 4.007 1.016 0.357 0.884 0.715 1.862 1.035 2.916-1.561-0.828-3.443-0.828-3.537-0.828v1.016c0.019 0 2.314 0.019 3.687 1.091-0.038 0.32-0.075 0.64-0.075 0.959v1.091c0 0.696 0.113 1.373 0.301 2.032l-2.935-0.452c-0.15-0.019-0.301-0.038-0.451-0.056-1.148 0-2.069-0.941-2.069-2.088 0-0.244 0.056-0.489 0.15-0.734l0.15-0.395-0.376-0.207c-0.602-0.376-0.959-1.035-0.959-1.749 0-0.414 0.113-0.809 0.339-1.148l0.32-0.489-0.508-0.245c-1.053-0.527-1.693-1.58-1.693-2.765 0-1.373 0.922-2.596 2.239-2.972l0.32-0.094 0.056-0.339c0.132-0.997 1.016-1.75 2.032-1.75 0.019 0 0.038 0 0.056 0 0.038 0 0.075 0.019 0.113 0.019l0.376 0.038 0.132-0.357c0.32-0.771 1.072-1.26 1.9-1.26 0.997 0 1.844 0.734 2.013 1.712zM7.074 17.552h-0.357c-1.148 0-2.069-0.922-2.069-2.069 0-0.245 0.056-0.489 0.151-0.734l0.151-0.395-0.376-0.226c-0.602-0.376-0.959-1.035-0.959-1.75 0-0.414 0.113-0.809 0.339-1.148l0.32-0.489-0.508-0.245c-1.054-0.527-1.693-1.58-1.693-2.765 0-1.373 0.922-2.596 2.239-2.972l0.32-0.094 0.056-0.339c0.151-0.997 1.016-1.768 2.032-1.768 0.019 0 0.038 0 0.056 0 0.038 0 0.075 0 0.113 0.019l0.376 0.038 0.151-0.339c0.301-0.752 1.053-1.242 1.881-1.242 0.997 0 1.844 0.715 2.032 1.712l0.094 0.527 0.527-0.113c0.169-0.038 0.301-0.056 0.451-0.056 0.245 0 0.47 0.056 0.677 0.132-0.771 0.207-1.43 0.715-1.825 1.411-1.373 0.038-2.54 1.016-2.878 2.333-1.599 0.583-2.69 2.126-2.69 3.857 0 1.373 0.677 2.653 1.806 3.405-0.169 0.395-0.263 0.809-0.263 1.242 0 0.922 0.414 1.787 1.129 2.37-0.056 0.245-0.094 0.489-0.094 0.734 0 0.903 0.395 1.731 1.016 2.295-0.301 0.094-0.602 0.207-0.884 0.339l-1.317-3.668zM2.577 24.362v-0.207c0-0.263 0.245-0.452 0.508-0.395l2.464 0.546c-0.075 0.15-0.132 0.301-0.169 0.47h-2.389c-0.226 0-0.414-0.188-0.414-0.414zM1.035 26.319c0-0.282 0.226-0.508 0.508-0.508h3.65c-0.019 0.169-0.019 0.339-0.019 0.508s0.019 0.339 0.019 0.508h-3.65c-0.282 0-0.508-0.226-0.508-0.508zM3.085 28.896c-0.245 0.056-0.508-0.151-0.508-0.395v-0.207c0-0.226 0.188-0.414 0.414-0.414h2.389c0.038 0.169 0.094 0.32 0.151 0.47l-2.446 0.546zM30.965 26.319c0 0.941-0.677 1.731-1.599 1.863l-17.703 2.728c-0.226 0.038-0.47 0.056-0.715 0.056h-0.113c-2.559 0-4.647-2.088-4.647-4.647s2.088-4.647 4.647-4.647h0.113c0.226 0 0.47 0.019 0.715 0.056l17.703 2.728c0.922 0.132 1.599 0.922 1.599 1.862zM30.965 19.113c0 1.58-0.64 3.123-1.768 4.27l-1.035-0.15c0.47-0.997 0.715-2.069 0.715-3.179v-1.9c0-1.825-0.696-3.593-1.9-4.929 0.207-0.188 0.489-0.32 0.79-0.32 0.244 0 0.489 0.075 0.677 0.226 1.561 1.148 2.502 2.991 2.502 4.91l0.019 1.072z"></path>
<path fill="#961914" style="fill: var(--color2, #961914)" d="M10.328 23.741h1.035v5.155h-1.035v-5.155z"></path>
<path fill="#961914" style="fill: var(--color2, #961914)" d="M14.448 23.741h1.035v5.155h-1.035v-5.155z"></path>
<path fill="#961914" style="fill: var(--color2, #961914)" d="M18.587 23.741h1.035v5.155h-1.035v-5.155z"></path>
<path fill="#961914" style="fill: var(--color2, #961914)" d="M22.707 24.776h1.035v3.104h-1.035v-3.104z"></path>
<path fill="#961914" style="fill: var(--color2, #961914)" d="M26.827 25.284h1.035v2.069h-1.035v-2.069z"></path>
</symbol>
<symbol id="icon-bone" viewBox="0 0 32 32">
<path fill="#961914" style="fill: var(--color2, #961914)" d="M30.849 5.051c-0.734-0.734-1.749-1.157-2.794-1.157 0-1.016-0.423-2.004-1.157-2.737-1.524-1.524-4.035-1.524-5.559 0-1.326 1.298-1.496 3.302-0.593 4.825l-14.702 14.758c-1.496-0.903-3.556-0.762-4.882 0.593-1.524 1.524-1.524 4.035 0 5.559 0.734 0.734 1.75 1.157 2.794 1.157 0 1.044 0.423 2.060 1.157 2.794 1.524 1.524 4.035 1.524 5.559 0 1.467-1.467 1.524-3.781 0.282-5.305l14.589-14.645c1.552 1.242 3.866 1.157 5.305-0.282 1.524-1.524 1.524-4.035 0-5.559zM29.523 9.284c-0.79 0.79-2.173 0.818-2.991 0-0.113-0.113-0.169-0.169-0.254-0.282-0.31-0.451-0.96-0.508-1.355-0.113-0.028 0.028-15.944 16-16 16.085-0.339 0.423-0.282 1.044 0.169 1.355 1.044 0.762 1.157 2.314 0.254 3.189-0.79 0.79-2.116 0.79-2.907 0-0.564-0.564-0.762-1.496-0.452-2.286 0.31-0.762-0.452-1.524-1.213-1.213s-1.693 0.113-2.286-0.452c-1.27-1.27-0.423-3.527 1.496-3.527 0.564 0 1.101 0.226 1.496 0.593 0.367 0.367 0.959 0.367 1.326 0 16.988-17.072 15.944-15.972 16.056-16.198 0.169-0.367 0.085-0.79-0.198-1.072-0.79-0.79-0.79-2.116 0-2.907s2.116-0.79 2.907 0c0.592 0.593 0.762 1.439 0.452 2.201-0.085 0.198-0.085 0.452 0 0.677 0.197 0.48 0.734 0.705 1.213 0.536 0.762-0.31 1.693-0.113 2.286 0.452 0.818 0.847 0.818 2.145 0 2.963z"></path>
<path fill="#961914" style="fill: var(--color2, #961914)" d="M10.356 11.57c0.367 0.367 0.959 0.367 1.326 0s0.367-0.959 0-1.326l-3.189-3.189c-0.367-0.367-0.959-0.367-1.326 0s-0.367 0.959 0 1.326l3.189 3.189z"></path>
<path fill="#961914" style="fill: var(--color2, #961914)" d="M3.499 14.928h4.487c0.508 0 0.931-0.423 0.931-0.931s-0.423-0.931-0.931-0.931h-4.487c-0.508 0-0.931 0.423-0.931 0.931 0 0.536 0.423 0.931 0.931 0.931z"></path>
<path fill="#961914" style="fill: var(--color2, #961914)" d="M14.109 8.833c0.508 0 0.931-0.423 0.931-0.931v-4.515c0-0.508-0.423-0.931-0.931-0.931s-0.931 0.423-0.931 0.931v4.515c0 0.508 0.395 0.931 0.931 0.931z"></path>
<path fill="#961914" style="fill: var(--color2, #961914)" d="M21.757 20.431c-0.367-0.367-0.959-0.367-1.326 0s-0.367 0.96 0 1.326l3.189 3.189c0.169 0.169 0.423 0.282 0.649 0.282 0.818 0 1.242-1.016 0.649-1.608l-3.16-3.189z"></path>
<path fill="#961914" style="fill: var(--color2, #961914)" d="M28.614 17.073h-4.515c-0.508 0-0.931 0.423-0.931 0.931s0.423 0.931 0.931 0.931h4.487c0.508 0 0.931-0.423 0.931-0.931 0.028-0.508-0.395-0.931-0.903-0.931z"></path>
<path fill="#961914" style="fill: var(--color2, #961914)" d="M18.004 23.168c-0.508 0-0.931 0.423-0.931 0.931v4.487c0 0.508 0.423 0.931 0.931 0.931s0.931-0.423 0.931-0.931v-4.487c0-0.508-0.423-0.931-0.931-0.931z"></path>
</symbol>
<symbol id="icon-meat" viewBox="0 0 46 32">
<path fill="#961914" style="fill: var(--color2, #961914)" d="M41.817 5.566c-2.096-1.494-5.026-2.699-8.734-3.614-7.149-1.759-15.211-1.952-18.355-1.952-8.116 0-14.727 5.928-14.727 13.205v5.59c0 7.277 6.611 13.205 14.727 13.205 3.736 0 6.558-1.060 9.541-2.169 3.090-1.157 6.262-2.337 10.75-2.337 5.912 0 10.696-4.313 10.696-9.59v-5.59c0-2.627-1.317-4.892-3.897-6.747zM41.065 19.253c0.349 0.313 0.914 0.337 1.263 0.024 0.618-0.506 1.129-1.084 1.586-1.687v0.313c0 4.41-4.004 8-8.922 8-4.837 0-8.197 1.253-11.422 2.458-2.795 1.060-5.456 2.048-8.842 2.048-6.853 0-12.497-4.795-12.927-10.867 2.499 4.096 7.364 6.867 12.927 6.867 3.736 0 6.557-1.060 9.541-2.169 3.090-1.157 6.262-2.337 10.75-2.337 0.322 0 0.672-0.024 0.994-0.048 0.484-0.048 0.86-0.434 0.806-0.867s-0.484-0.771-0.968-0.723c-0.269 0.024-0.564 0.024-0.833 0.024-4.837 0-8.197 1.253-11.422 2.458-2.822 1.084-5.482 2.072-8.869 2.072-7.149 0-12.954-5.205-12.954-11.614s5.805-11.614 12.954-11.614c3.064 0 10.938 0.193 17.872 1.904 7.498 1.855 11.314 4.819 11.314 8.819 0 2.193-1.021 4.313-2.822 5.807-0.349 0.313-0.349 0.819-0.027 1.133z"></path>
<path fill="#961914" style="fill: var(--color2, #961914)" d="M40.339 19.759c-0.215-0.41-0.752-0.578-1.182-0.386h-0.027c-0.43 0.193-0.618 0.675-0.403 1.084 0.161 0.289 0.484 0.434 0.806 0.434 0.134 0 0.269-0.024 0.403-0.072 0.43-0.193 0.618-0.651 0.403-1.060z"></path>
<path fill="#961914" style="fill: var(--color2, #961914)" d="M21.177 3.421h-0.054c-0.484-0.024-0.914 0.289-0.968 0.747-0.027 0.434 0.323 0.819 0.806 0.867h0.054c0.027 0 0.054 0 0.081 0 0.457 0 0.86-0.313 0.887-0.747 0.054-0.434-0.323-0.819-0.806-0.867z"></path>
<path fill="#961914" style="fill: var(--color2, #961914)" d="M41.576 10.169c-0.887-1.59-2.849-2.94-5.859-4.048-2.419-0.892-5.079-1.47-6.88-1.783-1.075-0.193-2.204-0.361-3.359-0.506-0.484-0.048-0.941 0.265-0.994 0.699-0.080 0.434 0.269 0.843 0.753 0.892 1.129 0.145 2.204 0.313 3.252 0.482 6.127 1.084 10.32 2.892 11.502 4.964 0.242 0.434 0.376 0.916 0.376 1.446 0 2.651-2.392 4.795-5.348 4.795-2.983 0-5.859 0.434-8.842 1.325-1.29 0.386-2.526 0.843-3.736 1.301-0.806 0.289-1.613 0.602-2.446 0.867-2.043 0.723-3.628 1.012-5.268 1.012-5.16 0-9.379-3.759-9.379-8.41 0-4.627 4.192-8.41 9.379-8.41 1.021 0 2.042 0.024 3.037 0.048 0.161 0 0.349 0 0.511 0.024 0.511 0.024 0.914-0.313 0.941-0.771 0.027-0.434-0.349-0.819-0.86-0.843-0.188 0-0.349-0.024-0.538-0.024-1.021 0-2.069-0.024-3.091-0.024-6.154 0-11.153 4.482-11.153 10s4.999 10 11.153 10c1.881 0 3.628-0.337 5.913-1.108 0.833-0.265 1.666-0.578 2.473-0.892 1.182-0.434 2.392-0.892 3.601-1.253 2.795-0.843 5.483-1.253 8.278-1.253 3.924 0 7.122-2.867 7.122-6.386 0.027-0.795-0.161-1.494-0.537-2.145z"></path>
<path fill="#961914" style="fill: var(--color2, #961914)" d="M15.588 6.386c-2.499 0-4.515 1.663-4.515 3.687s2.016 3.663 4.515 3.663c2.499 0 4.515-1.663 4.515-3.687s-2.016-3.663-4.515-3.663zM15.588 12.145c-1.505 0-2.741-0.94-2.741-2.072 0-1.157 1.236-2.072 2.741-2.072s2.741 0.916 2.741 2.072c0 1.157-1.236 2.072-2.741 2.072z"></path>
</symbol>
<symbol id="icon-logo-frame" viewBox="0 0 32 32">
<path fill="#ead1d0" style="fill: var(--color3, #ead1d0)" d="M16 31.993c8.833 0 15.993-7.16 15.993-15.993s-7.16-15.993-15.993-15.993c-8.833 0-15.993 7.16-15.993 15.993s7.16 15.993 15.993 15.993z"></path>
<path fill="#961914" style="fill: var(--color2, #961914)" d="M18.908 1.815l-1.155-0.158-0.268 1.966-0.323-0.048 0.309-2.241 1.471 0.206-0.034 0.275z"></path>
<path fill="#961914" style="fill: var(--color2, #961914)" d="M18.929 3.775c-0.11-0.11-0.186-0.234-0.227-0.385s-0.034-0.303 0.007-0.468c0.048-0.165 0.124-0.296 0.234-0.406s0.241-0.179 0.392-0.213c0.151-0.034 0.309-0.027 0.474 0.014 0.165 0.048 0.303 0.124 0.413 0.227 0.11 0.11 0.186 0.234 0.22 0.385 0.041 0.151 0.034 0.303-0.007 0.468s-0.124 0.296-0.227 0.406c-0.103 0.11-0.241 0.179-0.392 0.22-0.151 0.034-0.309 0.034-0.474-0.014s-0.303-0.124-0.413-0.234zM19.72 3.747c0.096-0.027 0.186-0.076 0.254-0.151 0.076-0.076 0.124-0.172 0.158-0.282 0.034-0.117 0.034-0.22 0.014-0.323-0.027-0.103-0.069-0.186-0.144-0.261s-0.165-0.117-0.268-0.151c-0.103-0.027-0.206-0.034-0.302-0.007s-0.186 0.076-0.254 0.151c-0.069 0.076-0.124 0.172-0.158 0.282-0.034 0.117-0.034 0.22-0.014 0.323s0.069 0.193 0.144 0.261c0.069 0.069 0.158 0.124 0.261 0.151 0.11 0.034 0.206 0.034 0.309 0.007z"></path>
<path fill="#961914" style="fill: var(--color2, #961914)" d="M22.312 4.662c-0.062 0.138-0.165 0.22-0.303 0.241-0.137 0.027-0.309-0.007-0.509-0.103l-0.743-0.351 0.736-1.554 0.722 0.344c0.186 0.089 0.309 0.186 0.378 0.309s0.076 0.241 0.014 0.364c-0.041 0.083-0.096 0.144-0.165 0.179-0.076 0.041-0.158 0.055-0.248 0.048 0.172 0.144 0.213 0.323 0.117 0.523zM21.865 4.641c0.076-0.007 0.131-0.055 0.172-0.131 0.034-0.082 0.041-0.151 0.007-0.22s-0.11-0.124-0.227-0.179l-0.468-0.22-0.22 0.468 0.454 0.213c0.11 0.055 0.206 0.076 0.282 0.069zM21.446 3.692l0.419 0.199c0.11 0.048 0.199 0.069 0.275 0.055s0.131-0.055 0.165-0.131c0.069-0.151-0.007-0.275-0.22-0.378l-0.426-0.199-0.213 0.454z"></path>
<path fill="#961914" style="fill: var(--color2, #961914)" d="M24.746 4.792l-0.983 1.403-0.227-0.158 0.309-0.447-0.406-0.289-0.028-0.021-0.619 0.227-0.275-0.193 0.681-0.241c-0.082-0.103-0.131-0.213-0.131-0.33-0.007-0.11 0.028-0.227 0.11-0.33 0.11-0.158 0.254-0.248 0.419-0.254 0.172-0.007 0.351 0.055 0.543 0.193l0.605 0.44zM23.364 4.882c0.027 0.089 0.103 0.172 0.22 0.254l0.392 0.275 0.385-0.55-0.378-0.268c-0.241-0.172-0.433-0.165-0.564 0.021-0.062 0.089-0.082 0.179-0.055 0.268z"></path>
<path fill="#961914" style="fill: var(--color2, #961914)" d="M25.757 7.715l-0.474 0.474-0.206-0.206 0.282-0.282-1.011-1.018-0.282 0.282-0.206-0.206 0.474-0.474 0.062 0.062c0.082 0.076 0.193 0.069 0.323 0 0.138-0.076 0.303-0.206 0.509-0.385l0.426-0.392 0.935 0.942-1.024 1.018 0.192 0.186zM24.994 6.518c-0.117 0.082-0.227 0.117-0.323 0.11l0.674 0.681 0.832-0.825-0.523-0.529-0.248 0.22c-0.151 0.151-0.289 0.261-0.413 0.344z"></path>
<path fill="#961914" style="fill: var(--color2, #961914)" d="M27.304 7.357l0.172 0.254-1.031 0.701 1.623 0.172 0.158 0.234-1.423 0.963-0.172-0.254 1.031-0.701-1.623-0.165-0.158-0.234 1.423-0.97z"></path>
<path fill="#961914" style="fill: var(--color2, #961914)" d="M28.734 9.64l0.124 0.289-0.667 0.289 0.385 0.894 0.667-0.289 0.124 0.289-1.575 0.681-0.124-0.289 0.66-0.282-0.392-0.894-0.66 0.282-0.124-0.282 1.581-0.688z"></path>
<path fill="#961914" style="fill: var(--color2, #961914)" d="M29.793 13.27c-0.082 0.151-0.241 0.248-0.461 0.303l-1.004 0.241-0.069-0.289 0.22-0.055c-0.089-0.034-0.165-0.089-0.227-0.172s-0.11-0.193-0.138-0.316c-0.041-0.186-0.034-0.344 0.028-0.481 0.062-0.131 0.172-0.22 0.316-0.254s0.275-0.007 0.392 0.076 0.199 0.248 0.254 0.481l0.117 0.481 0.062-0.014c0.131-0.028 0.22-0.089 0.275-0.186s0.062-0.213 0.027-0.358c-0.021-0.096-0.062-0.193-0.117-0.275-0.055-0.089-0.117-0.158-0.186-0.206l0.199-0.179c0.089 0.069 0.165 0.158 0.234 0.268s0.117 0.234 0.144 0.371c0.034 0.22 0.021 0.413-0.069 0.564zM28.5 13.257c0.069 0.069 0.158 0.117 0.261 0.131l0.234-0.055-0.11-0.468c-0.062-0.254-0.179-0.364-0.351-0.323-0.083 0.021-0.144 0.069-0.172 0.144-0.034 0.076-0.034 0.172-0.007 0.289s0.076 0.213 0.144 0.282z"></path>
<path fill="#961914" style="fill: var(--color2, #961914)" d="M31.23 16.206l0.007 0.282-3.060-1.031v-0.282l3.053 1.031z"></path>
<path fill="#961914" style="fill: var(--color2, #961914)" d="M30.59 18.455l-0.076 0.309-1.698-0.406 1.389 1.712-0.069 0.289-2.2-0.523 0.076-0.309 1.698 0.406-1.382-1.712 0.069-0.289 2.193 0.523z"></path>
<path fill="#961914" style="fill: var(--color2, #961914)" d="M29.215 21.287l-0.131 0.282-0.66-0.309-0.413 0.887 0.66 0.309-0.131 0.282-1.554-0.722 0.131-0.282 0.653 0.303 0.413-0.887-0.653-0.303 0.131-0.282 1.554 0.722z"></path>
<path fill="#961914" style="fill: var(--color2, #961914)" d="M25.819 24.217l-0.543-0.392 0.165-0.234 0.323 0.234 0.839-1.162-0.323-0.234 0.172-0.241 0.543 0.392-0.055 0.076c-0.062 0.096-0.041 0.199 0.055 0.316s0.254 0.268 0.461 0.433l0.454 0.358-0.777 1.079-1.176-0.839-0.137 0.213zM26.871 23.268c-0.096-0.103-0.151-0.206-0.165-0.296l-0.557 0.784 0.949 0.681 0.433-0.605-0.261-0.206c-0.165-0.131-0.296-0.254-0.399-0.358z"></path>
<path fill="#961914" style="fill: var(--color2, #961914)" d="M24.643 26.066l0.997-0.97c-0.117-0.096-0.254-0.137-0.399-0.124s-0.275 0.076-0.399 0.192c-0.144 0.144-0.22 0.309-0.213 0.495l-0.261-0.028c-0.007-0.117 0.014-0.234 0.062-0.351s0.124-0.22 0.227-0.316c0.131-0.124 0.275-0.213 0.426-0.254s0.303-0.048 0.454 0c0.144 0.041 0.282 0.124 0.399 0.248 0.117 0.117 0.193 0.254 0.234 0.399 0.041 0.151 0.041 0.296 0 0.44s-0.124 0.275-0.241 0.385c-0.117 0.117-0.248 0.186-0.392 0.227-0.144 0.034-0.289 0.028-0.433-0.014s-0.275-0.131-0.399-0.254c-0.021-0.021-0.041-0.048-0.062-0.076zM25.922 25.633c0.007-0.137-0.034-0.261-0.124-0.378l-0.791 0.763c0.11 0.089 0.234 0.137 0.371 0.131 0.137 0 0.254-0.055 0.364-0.158s0.165-0.22 0.179-0.358z"></path>
<path fill="#961914" style="fill: var(--color2, #961914)" d="M24.581 27.338l-0.261 0.172-0.694-1.038-0.186 1.623-0.234 0.158-0.949-1.43 0.261-0.172 0.695 1.038 0.179-1.623 0.234-0.158 0.956 1.43zM24.409 27.861c0.117 0.014 0.213 0.082 0.296 0.199l-0.172 0.117c-0.048-0.062-0.103-0.103-0.172-0.117s-0.144 0.007-0.22 0.055c-0.076 0.048-0.117 0.11-0.138 0.179s-0.007 0.138 0.034 0.206l-0.179 0.117c-0.076-0.124-0.103-0.241-0.069-0.351s0.117-0.213 0.248-0.303c0.131-0.082 0.261-0.117 0.371-0.103z"></path>
<path fill="#961914" style="fill: var(--color2, #961914)" d="M21.287 28.095l0.323-0.144-0.289-0.667 0.282-0.124 0.681 1.575-0.289 0.124-0.289-0.667-0.33 0.144-0.22 0.887-0.303 0.131 0.268-1.018-0.99-0.536 0.337-0.144 0.818 0.44z"></path>
<path fill="#961914" style="fill: var(--color2, #961914)" d="M18.977 29.717c-0.151-0.082-0.254-0.234-0.309-0.461l-0.254-1.004 0.289-0.076 0.055 0.22c0.027-0.089 0.089-0.165 0.172-0.234 0.082-0.062 0.186-0.11 0.316-0.144 0.186-0.048 0.344-0.041 0.481 0.021s0.22 0.165 0.261 0.309c0.034 0.144 0.014 0.275-0.069 0.392s-0.241 0.206-0.474 0.261l-0.474 0.124 0.014 0.062c0.034 0.131 0.096 0.22 0.186 0.268s0.213 0.055 0.358 0.021c0.096-0.028 0.192-0.062 0.275-0.124s0.151-0.117 0.206-0.193l0.186 0.193c-0.069 0.089-0.158 0.172-0.268 0.234-0.11 0.069-0.234 0.117-0.364 0.151-0.241 0.076-0.433 0.062-0.584-0.021zM18.97 28.425c-0.069 0.069-0.11 0.158-0.124 0.261l0.055 0.234 0.461-0.117c0.254-0.062 0.364-0.179 0.316-0.351-0.021-0.082-0.069-0.144-0.144-0.172-0.076-0.034-0.172-0.034-0.289 0-0.11 0.021-0.206 0.069-0.275 0.144z"></path>
<path fill="#961914" style="fill: var(--color2, #961914)" d="M12.727 30.089l1.148 0.199 0.33-1.953 0.316 0.055-0.385 2.235-1.465-0.248 0.055-0.289z"></path>
<path fill="#961914" style="fill: var(--color2, #961914)" d="M12.761 28.122c0.11 0.11 0.179 0.241 0.22 0.392 0.034 0.151 0.028 0.303-0.021 0.468s-0.131 0.296-0.241 0.399c-0.11 0.103-0.241 0.172-0.392 0.206s-0.309 0.027-0.474-0.028c-0.165-0.048-0.303-0.124-0.406-0.234-0.11-0.11-0.179-0.241-0.213-0.385-0.034-0.151-0.027-0.302 0.021-0.468 0.048-0.158 0.124-0.296 0.241-0.399s0.241-0.172 0.392-0.206c0.151-0.034 0.309-0.027 0.474 0.021 0.158 0.041 0.289 0.124 0.399 0.234zM11.971 28.129c-0.096 0.028-0.186 0.076-0.254 0.144-0.076 0.076-0.131 0.165-0.165 0.282s-0.041 0.22-0.021 0.323 0.069 0.193 0.137 0.261c0.069 0.076 0.158 0.124 0.261 0.158s0.206 0.034 0.303 0.014 0.186-0.069 0.261-0.144c0.076-0.076 0.131-0.165 0.165-0.282s0.041-0.22 0.014-0.323c-0.021-0.103-0.069-0.192-0.137-0.261-0.069-0.076-0.158-0.124-0.261-0.158s-0.206-0.034-0.303-0.014z"></path>
<path fill="#961914" style="fill: var(--color2, #961914)" d="M9.413 27.139c0.069-0.138 0.172-0.213 0.309-0.234s0.309 0.021 0.509 0.124l0.736 0.378-0.777 1.526-0.708-0.364c-0.179-0.089-0.303-0.199-0.371-0.316s-0.069-0.241-0.007-0.371c0.041-0.082 0.096-0.137 0.172-0.172s0.158-0.048 0.248-0.041c-0.172-0.158-0.213-0.33-0.11-0.529zM10.252 28.136l-0.413-0.213c-0.103-0.055-0.192-0.076-0.268-0.062-0.076 0.007-0.131 0.055-0.165 0.124-0.076 0.144-0.007 0.275 0.213 0.385l0.413 0.213 0.22-0.447zM9.853 27.173c-0.076 0.007-0.137 0.048-0.172 0.124-0.041 0.082-0.041 0.151-0.014 0.213 0.034 0.069 0.11 0.131 0.22 0.186l0.461 0.234 0.234-0.461-0.447-0.227c-0.11-0.048-0.206-0.076-0.282-0.069z"></path>
<path fill="#961914" style="fill: var(--color2, #961914)" d="M6.979 26.926l1.031-1.368 0.22 0.165-0.323 0.433 0.426 0.323 0.626-0.206 0.268 0.199-0.688 0.22c0.082 0.11 0.124 0.22 0.124 0.33s-0.041 0.22-0.117 0.33c-0.117 0.158-0.261 0.234-0.426 0.241-0.172 0-0.351-0.069-0.536-0.206l-0.605-0.461zM8.361 26.884c-0.027-0.089-0.096-0.172-0.213-0.261l-0.378-0.289-0.406 0.543 0.371 0.275c0.241 0.179 0.426 0.179 0.564 0 0.062-0.096 0.082-0.186 0.062-0.268z"></path>
<path fill="#961914" style="fill: var(--color2, #961914)" d="M6.078 23.99l0.488-0.461 0.199 0.213-0.289 0.268 0.976 1.045 0.289-0.268 0.199 0.213-0.488 0.454-0.062-0.069c-0.083-0.076-0.186-0.076-0.323-0.007s-0.309 0.193-0.516 0.371l-0.44 0.378-0.914-0.963 1.052-0.983-0.172-0.193zM6.8 25.214c0.124-0.076 0.227-0.11 0.323-0.103l-0.653-0.701-0.859 0.798 0.509 0.543 0.254-0.213c0.165-0.138 0.303-0.248 0.426-0.323z"></path>
<path fill="#961914" style="fill: var(--color2, #961914)" d="M4.511 24.285l-0.165-0.261 1.052-0.667-1.616-0.22-0.151-0.241 1.451-0.914 0.165 0.261-1.059 0.667 1.616 0.22 0.151 0.241-1.444 0.915z"></path>
<path fill="#961914" style="fill: var(--color2, #961914)" d="M3.149 21.954l-0.117-0.289 0.674-0.268-0.351-0.908-0.674 0.268-0.117-0.289 1.595-0.633 0.117 0.289-0.667 0.261 0.358 0.908 0.667-0.261 0.117 0.289-1.602 0.633z"></path>
<path fill="#961914" style="fill: var(--color2, #961914)" d="M2.207 18.317c0.089-0.144 0.248-0.241 0.474-0.289l1.011-0.206 0.062 0.289-0.227 0.041c0.089 0.034 0.165 0.096 0.227 0.179s0.103 0.192 0.131 0.323c0.041 0.186 0.027 0.351-0.041 0.481s-0.179 0.213-0.323 0.241c-0.151 0.027-0.282 0-0.392-0.089s-0.193-0.254-0.241-0.488l-0.096-0.481-0.062 0.014c-0.131 0.027-0.227 0.082-0.275 0.179-0.055 0.089-0.069 0.206-0.034 0.358 0.021 0.096 0.055 0.193 0.11 0.282s0.11 0.158 0.179 0.213l-0.199 0.172c-0.089-0.076-0.165-0.165-0.227-0.275s-0.11-0.234-0.138-0.371c-0.048-0.234-0.027-0.426 0.062-0.571zM3.5 18.365c-0.069-0.076-0.158-0.117-0.261-0.137l-0.234 0.048 0.096 0.468c0.055 0.261 0.165 0.371 0.337 0.33 0.083-0.021 0.144-0.062 0.179-0.137s0.041-0.172 0.014-0.289c-0.014-0.11-0.062-0.206-0.131-0.282z"></path>
<path fill="#961914" style="fill: var(--color2, #961914)" d="M0.859 15.326l0.007-0.282 3.032 1.121-0.007 0.282-3.032-1.121z"></path>
<path fill="#961914" style="fill: var(--color2, #961914)" d="M1.575 13.085l0.083-0.309 1.685 0.461-1.334-1.753 0.076-0.289 2.186 0.598-0.082 0.303-1.685-0.461 1.327 1.753-0.076 0.289-2.18-0.591z"></path>
<path fill="#961914" style="fill: var(--color2, #961914)" d="M3.032 10.307l0.138-0.275 0.653 0.33 0.44-0.873-0.653-0.33 0.144-0.275 1.533 0.777-0.138 0.275-0.639-0.323-0.44 0.873 0.639 0.323-0.138 0.275-1.54-0.777z"></path>
<path fill="#961914" style="fill: var(--color2, #961914)" d="M6.532 7.474l0.529 0.406-0.179 0.234-0.316-0.241-0.873 1.135 0.316 0.241-0.179 0.234-0.529-0.406 0.055-0.069c0.062-0.089 0.048-0.199-0.048-0.323s-0.241-0.275-0.447-0.454l-0.447-0.371 0.811-1.059 1.141 0.88 0.165-0.206zM5.446 8.389c0.096 0.11 0.144 0.206 0.151 0.303l0.584-0.763-0.928-0.715-0.454 0.591 0.254 0.213c0.165 0.137 0.296 0.261 0.392 0.371z"></path>
<path fill="#961914" style="fill: var(--color2, #961914)" d="M7.756 5.673l-1.031 0.935c0.117 0.096 0.248 0.144 0.392 0.138s0.282-0.069 0.406-0.179c0.151-0.138 0.227-0.303 0.227-0.488l0.261 0.034c0 0.117-0.021 0.234-0.076 0.351-0.055 0.11-0.131 0.22-0.241 0.316-0.138 0.124-0.275 0.199-0.433 0.241-0.151 0.041-0.303 0.034-0.454-0.014-0.138-0.062-0.268-0.144-0.378-0.268s-0.186-0.261-0.22-0.406c-0.034-0.151-0.028-0.296 0.014-0.44 0.048-0.144 0.131-0.268 0.254-0.378s0.254-0.186 0.399-0.213c0.144-0.027 0.289-0.021 0.433 0.027s0.275 0.138 0.392 0.268c0.014 0.014 0.034 0.041 0.055 0.076zM6.47 6.058c-0.014 0.138 0.021 0.261 0.11 0.378l0.811-0.743c-0.11-0.096-0.234-0.144-0.371-0.144s-0.261 0.048-0.371 0.151c-0.103 0.103-0.165 0.22-0.179 0.358z"></path>
<path fill="#961914" style="fill: var(--color2, #961914)" d="M8.045 3.885c-0.117-0.021-0.213-0.089-0.289-0.213l0.179-0.11c0.041 0.069 0.103 0.11 0.172 0.117 0.069 0.014 0.144 0 0.22-0.048s0.124-0.103 0.144-0.172c0.021-0.069 0.014-0.138-0.028-0.206l0.186-0.117c0.076 0.124 0.096 0.241 0.055 0.358-0.034 0.11-0.124 0.213-0.254 0.296-0.144 0.083-0.268 0.117-0.385 0.096zM7.859 4.401l0.261-0.165 0.66 1.059 0.234-1.616 0.241-0.151 0.908 1.458-0.261 0.165-0.66-1.059-0.241 1.616-0.241 0.151-0.901-1.458z"></path>
<path fill="#961914" style="fill: var(--color2, #961914)" d="M11.173 3.747l-0.33 0.131 0.268 0.674-0.289 0.117-0.633-1.595 0.289-0.117 0.268 0.674 0.337-0.138 0.248-0.88 0.309-0.124-0.296 1.011 0.976 0.571-0.344 0.138-0.804-0.461z"></path>
<path fill="#961914" style="fill: var(--color2, #961914)" d="M13.532 2.2c0.144 0.089 0.248 0.241 0.296 0.468l0.22 1.011-0.289 0.062-0.048-0.22c-0.034 0.089-0.089 0.165-0.179 0.227-0.082 0.062-0.193 0.11-0.316 0.138-0.186 0.041-0.351 0.027-0.481-0.034-0.131-0.069-0.213-0.172-0.248-0.323-0.034-0.144-0.007-0.275 0.082-0.392 0.089-0.11 0.248-0.193 0.481-0.248l0.481-0.103-0.014-0.062c-0.027-0.131-0.089-0.22-0.179-0.275s-0.213-0.062-0.358-0.027c-0.096 0.021-0.192 0.062-0.282 0.11-0.089 0.055-0.158 0.117-0.213 0.186l-0.179-0.199c0.069-0.089 0.165-0.165 0.275-0.227s0.234-0.11 0.371-0.138c0.241-0.055 0.433-0.041 0.578 0.048zM13.504 3.493c0.069-0.069 0.117-0.158 0.138-0.261l-0.055-0.234-0.468 0.103c-0.261 0.055-0.364 0.172-0.33 0.344 0.021 0.083 0.062 0.144 0.144 0.179 0.076 0.034 0.172 0.041 0.289 0.014s0.206-0.076 0.282-0.144z"></path>
<path fill="#961914" style="fill: var(--color2, #961914)" d="M23.57 16.138c-0.048-0.062-0.117-0.096-0.193-0.096-0.082 0-0.165-0.028-0.227-0.082-0.199-0.144-0.44-0.206-0.715-0.172 0.103-0.186 0.165-0.399 0.165-0.619v-0.014c0-0.137-0.11-0.241-0.248-0.241s-0.241 0.11-0.241 0.248v0.014c0 0.241-0.117 0.468-0.316 0.605-0.179-0.082-0.378-0.131-0.591-0.124s-0.413 0.048-0.591 0.138c-0.199-0.131-0.323-0.358-0.323-0.598v-0.014c0-0.138-0.11-0.241-0.248-0.241s-0.241 0.11-0.241 0.248v0.014c0 0.22 0.062 0.433 0.172 0.612-0.268-0.027-0.516 0.034-0.708 0.179-0.069 0.055-0.144 0.083-0.227 0.083-0.076 0-0.144 0.041-0.186 0.096s-0.062 0.138-0.041 0.206c0.055 0.213 0.151 0.385 0.275 0.516-0.344 0.069-0.694 0.103-1.045 0.103l-4.999 0.048c-1.128 0.007-2.035 0.935-2.028 2.063l0.014 1.939c0 0.137 0.11 0.241 0.248 0.241s0.241-0.11 0.241-0.248l-0.014-1.939c-0.007-0.736 0.509-1.361 1.196-1.526-0.048 0.041-0.096 0.089-0.144 0.131-0.378 0.385-0.605 0.887-0.639 1.423 0 0.007 0 0.021 0 0.027 0 0.048-0.007 0.096-0.007 0.144l0.007 0.447c0.007 0.454 0.138 0.894 0.378 1.279 0.227 0.351 0.536 0.639 0.901 0.832l0.241 0.784 0.014 1.74c0 0.241 0.199 0.433 0.44 0.433l1.898-0.014c0.158 0 0.303-0.082 0.378-0.22 0.082-0.137 0.082-0.302 0.007-0.44l-0.151-0.282-0.014-1.478 2.008-0.021c0.055 0.11 0.124 0.213 0.206 0.309l0.014 1.671c0 0.241 0.199 0.433 0.44 0.433l1.74-0.014c0.158 0 0.303-0.082 0.378-0.22 0.082-0.138 0.082-0.303 0.007-0.44l-0.151-0.282-0.014-1.224c0.172-0.193 0.316-0.413 0.426-0.646 0.729-0.454 1.217-1.258 1.231-2.18 0.344-0.144 0.584-0.488 0.578-0.887v-0.11c0-0.254-0.103-0.481-0.261-0.646 0.007-0.021 0.007-0.041 0.007-0.055l-0.007-0.928c0.014 0 0.034 0 0.055 0 0.137 0 0.302-0.027 0.468-0.117 0.241-0.131 0.406-0.364 0.488-0.694 0.014-0.055 0-0.131-0.048-0.193zM22.119 17.038l0.007 0.825c-0.069-0.014-0.138-0.021-0.213-0.021l-1.375 0.014c-0.076 0-0.144 0.007-0.213 0.028l-0.007-0.825c-0.007-0.495 0.399-0.908 0.894-0.908 0.495-0.007 0.901 0.392 0.908 0.887zM19.562 16.378c0.144-0.11 0.337-0.096 0.468-0.062-0.069 0.11-0.124 0.234-0.158 0.364-0.076 0.014-0.213 0.021-0.337-0.041-0.062-0.034-0.117-0.082-0.158-0.151 0.069-0.028 0.131-0.062 0.186-0.11zM16.715 17.685c0-0.096 0.076-0.172 0.172-0.179l1.093-0.007c0.358 0 0.653 0.296 0.653 0.653 0 0.364-0.289 0.667-0.653 0.667l-1.946 0.014c-0.131 0-0.241-0.103-0.241-0.241 0-0.131 0.103-0.241 0.241-0.241h0.021c0.364 0 0.66-0.302 0.66-0.667zM12.686 20.731c-0.172-0.289-0.275-0.626-0.275-0.976v-0.344l1.946-0.014c0.131 0 0.241 0.103 0.241 0.241 0 0.131-0.103 0.241-0.241 0.241h-0.021c-0.364 0-0.667 0.302-0.66 0.674 0 0.096-0.076 0.179-0.179 0.179h-0.811zM15.567 24.052l0.144 0.268-0.495 0.007c-0.007-0.055-0.021-0.11-0.055-0.165l-0.151-0.282-0.014-1.224c0.076-0.082 0.144-0.172 0.206-0.261h0.316l0.014 1.54c0 0.041 0.014 0.082 0.034 0.117zM20.187 24.010l0.144 0.268-0.523 0.007c-0.007-0.069-0.034-0.138-0.076-0.199l-0.089-0.138-0.014-1.334c0.076-0.089 0.151-0.179 0.213-0.268 0.137-0.007 0.282-0.028 0.413-0.062-0.014 0.021-0.034 0.034-0.048 0.055-0.048 0.048-0.069 0.11-0.069 0.172l0.014 1.382c0.007 0.041 0.014 0.082 0.034 0.117zM20.297 20.882v-0.282c0-0.138-0.11-0.241-0.248-0.241s-0.241 0.11-0.241 0.248v0.282c0 0.378-0.096 0.743-0.282 1.066-0.014 0.021-0.027 0.041-0.041 0.062-0.076 0.117-0.165 0.234-0.268 0.337-0.048 0.048-0.069 0.11-0.069 0.172l0.014 1.506c0 0.048 0.014 0.096 0.041 0.138l0.089 0.131-0.571 0.007-0.014-1.719c0-0.069-0.028-0.131-0.076-0.179-0.158-0.151-0.254-0.358-0.254-0.578l-0.007-0.481c0-0.137-0.11-0.241-0.248-0.241s-0.241 0.11-0.241 0.248l0.007 0.481c0 0.021 0 0.041 0 0.062l-2.413 0.021c0.124-0.309 0.193-0.639 0.186-0.983v-0.282c0-0.137-0.11-0.241-0.248-0.241s-0.241 0.11-0.241 0.248v0.282c0.007 0.55-0.206 1.073-0.591 1.465-0.048 0.048-0.069 0.11-0.069 0.172l0.014 1.382c0 0.041 0.014 0.082 0.027 0.117l0.144 0.268-0.763 0.007-0.014-1.719c0-0.021-0.007-0.048-0.014-0.069l-0.275-0.921c-0.021-0.062-0.069-0.124-0.131-0.151-0.151-0.069-0.289-0.158-0.406-0.268l0.399-0.007c0.364 0 0.667-0.303 0.66-0.674 0-0.096 0.076-0.179 0.179-0.179h0.021c0.399-0.007 0.729-0.33 0.722-0.736-0.007-0.399-0.33-0.729-0.736-0.722l-1.905 0.014c0.069-0.323 0.227-0.626 0.468-0.866 0.33-0.337 0.77-0.523 1.245-0.529l2.097-0.021c-0.014 0.055-0.021 0.117-0.021 0.179 0 0.096-0.076 0.179-0.179 0.179h-0.021c-0.399 0.007-0.729 0.33-0.722 0.736 0.007 0.399 0.33 0.729 0.736 0.722l1.946-0.014c0.633-0.007 1.148-0.523 1.141-1.162 0-0.268-0.096-0.516-0.254-0.715 0.323-0.048 0.646-0.117 0.956-0.213l0.007 0.887c0 0.021 0 0.041 0.007 0.055-0.158 0.172-0.254 0.399-0.254 0.653v0.11c0.007 0.523 0.433 0.949 0.963 0.942l1.251-0.014c-0.048 0.963-0.749 1.76-1.671 1.96 0.11-0.289 0.172-0.605 0.165-0.928zM22.388 18.902c0 0.254-0.206 0.468-0.461 0.468l-1.375 0.014c-0.254 0-0.468-0.206-0.468-0.461v-0.11c0-0.254 0.206-0.468 0.461-0.468l1.375-0.014c0.254 0 0.468 0.206 0.468 0.461v0.11zM22.896 16.612c-0.124 0.069-0.261 0.062-0.337 0.048-0.034-0.131-0.096-0.248-0.165-0.364 0.131-0.034 0.323-0.055 0.468 0.055 0.055 0.041 0.124 0.082 0.186 0.11-0.048 0.062-0.096 0.117-0.151 0.151z"></path>
<path fill="#961914" style="fill: var(--color2, #961914)" d="M20.366 16.935c0 0.137 0.11 0.241 0.248 0.241h0.007c0.137 0 0.241-0.11 0.241-0.248s-0.11-0.241-0.248-0.241h-0.007c-0.137 0-0.241 0.11-0.241 0.248z"></path>
<path fill="#961914" style="fill: var(--color2, #961914)" d="M21.631 17.162c0.137 0 0.248-0.11 0.248-0.248s-0.11-0.241-0.248-0.241h-0.007c-0.138 0-0.241 0.11-0.241 0.248s0.11 0.248 0.248 0.241z"></path>
<path fill="#961914" style="fill: var(--color2, #961914)" d="M20.662 18.647c-0.137 0-0.248 0.11-0.248 0.248s0.11 0.241 0.248 0.241h0.007c0.138 0 0.241-0.11 0.241-0.248s-0.11-0.248-0.248-0.241z"></path>
<path fill="#961914" style="fill: var(--color2, #961914)" d="M21.686 18.633c-0.138 0-0.248 0.11-0.248 0.248s0.11 0.241 0.248 0.241h0.007c0.137 0 0.241-0.11 0.241-0.248-0.007-0.131-0.117-0.241-0.248-0.241z"></path>
<path fill="#961914" style="fill: var(--color2, #961914)" d="M11.228 21.776c-0.062 0-0.124 0.028-0.172 0.076s-0.069 0.11-0.069 0.172c0 0.062 0.028 0.124 0.076 0.172s0.11 0.069 0.172 0.069c0.062 0 0.124-0.028 0.172-0.076s0.069-0.11 0.069-0.172c0-0.062-0.028-0.124-0.076-0.172-0.048-0.041-0.11-0.069-0.172-0.069z"></path>
<path fill="#961914" style="fill: var(--color2, #961914)" d="M11.806 12.837c0.303-0.11 0.88-0.206 1.513-0.11 0.784 0.117 1.437 0.495 1.891 1.093 0.041 0.055 0.055 0.131 0.028 0.193s-0.089 0.11-0.158 0.117c-0.007 0-0.536 0.069-1.128 0.206l0.151 0.399c0.041 0.103-0.014 0.213-0.117 0.254-0.021 0.007-0.041 0.014-0.062 0.014-0.082 0-0.172-0.048-0.199-0.131l-0.165-0.426c-0.082 0.021-0.165 0.048-0.248 0.076-0.007 0-0.007 0-0.014 0l0.165 0.413c0.041 0.103-0.014 0.213-0.117 0.254-0.021 0.007-0.041 0.014-0.062 0.014-0.082 0-0.165-0.048-0.199-0.131l-0.165-0.413c-0.048 0.014-0.096 0.034-0.144 0.048-0.296 0.103-0.516 0.179-0.66 0.199-0.007 0-0.014 0-0.014 0-0.103 0.007-0.199-0.076-0.213-0.179-0.014-0.11 0.062-0.206 0.172-0.22 0.096-0.014 0.33-0.089 0.571-0.179 0.103-0.034 0.213-0.076 0.33-0.117 0.069-0.021 0.137-0.048 0.213-0.069 0.138-0.041 0.289-0.089 0.447-0.131 0.392-0.103 0.777-0.172 1.038-0.213-0.949-0.942-2.352-0.708-2.709-0.578-0.282 0.103-0.743 0.344-0.681 0.804 0.014 0.11-0.062 0.206-0.172 0.22s-0.213-0.069-0.227-0.172c-0.069-0.55 0.268-0.997 0.935-1.238z"></path>
<path fill="#961914" style="fill: var(--color2, #961914)" d="M10.121 11.036c-0.172 0.509-0.674 2.111-0.495 3.287 0 0.007 0 0.014 0 0.014 0.069 0.571 0.447 1.093 1.073 1.465 0.419 0.248 0.914 0.413 1.451 0.488l0.048 0.846c0 0 0.021 0.144 0.028 0.248 0.007 0.11-0.041 0.158 0.069 0.158l1.63-0.069c0.11-0.007 0.199-0.096 0.192-0.206s-0.103-0.193-0.213-0.193l-0.44 0.014-0.048-0.811c0.468-0.069 0.908-0.206 1.286-0.406 0.22 0.309 0.536 0.557 0.894 0.701 0.261 0.103 0.543 0.151 0.825 0.144 0.158-0.007 0.316-0.028 0.468-0.069 0.296-0.082 0.502-0.241 0.598-0.44 0.089 0.014 0.186 0.021 0.275 0.021 0.536-0.021 1.018-0.371 1.162-0.908 0.076-0.303 0.041-0.619-0.11-0.894-0.096-0.172-0.227-0.323-0.392-0.433 0.351-0.337 0.474-0.859 0.275-1.327-0.186-0.447-0.612-0.749-1.080-0.798 0.055-0.193 0.062-0.406 0.007-0.612-0.076-0.323-0.275-0.598-0.557-0.777-0.289-0.186-0.626-0.248-0.963-0.179-0.33 0.069-0.612 0.254-0.798 0.529-0.172 0.261-0.454 0.921-0.639 1.54-0.578-0.289-1.286-0.44-2.015-0.413-0.275 0.007-0.543 0.041-0.804 0.096 0.055-0.509 0.165-1.561 0.227-1.966 0.137-0.908 0.034-1.526-0.316-1.884-0.254-0.268-0.639-0.378-1.128-0.337-1.224 0.103-1.354 1.918-1.361 1.994s0.034 0.144 0.103 0.186c0.069 0.041 0.144 0.041 0.213 0 0.165-0.096 0.303-0.137 0.413-0.124-0.048 0.193-0.11 0.468-0.117 0.543-0.014 0.22 0.076 0.44 0.241 0.571zM15.739 14.934c0.165-0.289 0.241-0.591 0.22-0.908-0.034-0.557-0.358-1.073-0.921-1.458 0.186-0.646 0.474-1.313 0.626-1.54 0.124-0.186 0.316-0.316 0.543-0.364s0.461 0 0.653 0.124c0.399 0.254 0.523 0.77 0.282 1.155-0.041 0.069-0.041 0.151 0.007 0.213s0.124 0.096 0.206 0.082c0.413-0.069 0.818 0.151 0.976 0.536 0.158 0.392 0 0.846-0.378 1.038-0.069 0.034-0.11 0.11-0.103 0.186s0.062 0.144 0.137 0.172c0.426 0.158 0.66 0.591 0.55 1.018-0.117 0.447-0.591 0.708-1.052 0.584-0.021-0.007-0.041-0.014-0.062-0.021-0.351-0.082-1.107-0.433-1.685-0.818zM15.051 15.663c0.179-0.124 0.33-0.261 0.461-0.406 0.523 0.344 1.169 0.66 1.588 0.825-0.069 0.089-0.206 0.151-0.323 0.186-0.337 0.089-0.694 0.069-1.024-0.055-0.282-0.117-0.529-0.309-0.701-0.55zM12.61 17.121l-0.048-0.798c0.117 0.007 0.241 0.007 0.358 0 0.034 0 0.069 0 0.103-0.007l0.048 0.784-0.461 0.021zM10.025 14.226c-0.041-0.729 0.626-1.423 1.664-1.726 0.316-0.089 0.646-0.144 0.997-0.158 0.749-0.027 1.465 0.144 2.008 0.481 0.523 0.323 0.832 0.756 0.859 1.217 0.014 0.289-0.069 0.564-0.261 0.825-0.151 0.213-0.364 0.406-0.633 0.564-0.481 0.296-1.107 0.468-1.767 0.488-0.186 0.007-0.364 0-0.543-0.014-0.536-0.048-1.038-0.206-1.444-0.447-0.523-0.309-0.832-0.729-0.88-1.183 0.007-0.014 0-0.028 0-0.048zM10.513 11.159c0.289-0.014 0.529-0.248 0.564-0.564 0.007-0.103-0.014-0.591-0.027-0.743-0.007-0.11-0.103-0.193-0.213-0.193-0.11 0.007-0.199 0.096-0.193 0.206 0.014 0.289 0.028 0.633 0.028 0.688-0.014 0.124-0.11 0.227-0.213 0.213-0.007 0-0.021 0-0.027-0.007-0.089-0.027-0.151-0.137-0.138-0.254 0.007-0.055 0.082-0.371 0.144-0.646 0-0.007 0-0.014 0-0.014v-0.007c0-0.007 0-0.007 0-0.014s0-0.007 0-0.014v-0.007c0-0.007 0-0.007 0-0.014v-0.007c0-0.007 0-0.007 0-0.014v-0.007c0-0.007 0-0.007 0-0.007v-0.007c0 0 0-0.007-0.007-0.007 0 0 0-0.007-0.007-0.007 0 0 0-0.007-0.007-0.007 0-0.007-0.007-0.007-0.007-0.014 0 0 0-0.007-0.007-0.007l-0.007-0.007c0 0 0-0.007-0.007-0.007l-0.007-0.007-0.014-0.014c-0.007-0.007-0.007-0.007-0.014-0.014-0.11-0.082-0.323-0.186-0.626-0.11 0.089-0.461 0.33-1.238 0.949-1.293 0.364-0.034 0.626 0.034 0.791 0.213 0.254 0.261 0.323 0.784 0.206 1.554-0.069 0.468-0.199 1.74-0.241 2.152-0.523 0.172-0.97 0.44-1.293 0.777-0.034 0.034-0.062 0.069-0.096 0.103 0.11-0.811 0.358-1.588 0.468-1.898z"></path>
<path fill="#961914" style="fill: var(--color2, #961914)" d="M10.761 8.822c0.261-0.007 0.282 0.385 0.021 0.392-0.254 0.007-0.282-0.385-0.021-0.392z"></path>
<path fill="#961914" style="fill: var(--color2, #961914)" d="M16.261 11.297c0.261-0.007 0.282 0.385 0.021 0.392-0.254 0.014-0.282-0.385-0.021-0.392z"></path>
<path fill="#961914" style="fill: var(--color2, #961914)" d="M17.623 12.872c0.261-0.007 0.282 0.385 0.021 0.392-0.254 0.014-0.275-0.385-0.021-0.392z"></path>
<path fill="#961914" style="fill: var(--color2, #961914)" d="M17.918 14.879c0.261-0.007 0.282 0.385 0.021 0.392-0.254 0.007-0.282-0.385-0.021-0.392z"></path>
<path fill="#961914" style="fill: var(--color2, #961914)" d="M11.4 14.37c0.261-0.007 0.282 0.385 0.021 0.392s-0.282-0.385-0.021-0.392z"></path>
</symbol>
<symbol id="icon-zoov-hero" viewBox="0 0 9 32">
<path fill="#fff" style="fill: var(--color1, #fff)" opacity="0.6" d="M9.671 32h-1.325l-6.693-2.288v2.183h-1.524v-4.377h1.243l6.775 2.323v-2.346h1.524v4.505zM8.204 29.922l-6.843-2.346h-1.175v4.26h1.408v-2.206l6.761 2.311h1.257v-4.388h-1.408v2.369zM2.117 23.061l-0 0c-0.162 0.029-0.291 0.091-0.39 0.184-0.092 0.086-0.144 0.227-0.144 0.436 0 0.192 0.051 0.326 0.144 0.412 0.099 0.092 0.228 0.154 0.39 0.184l0 0c0.159 0.030 0.33 0.046 0.513 0.046h4.539c0.175 0 0.347-0.011 0.514-0.034 0.162-0.030 0.29-0.088 0.389-0.173 0.092-0.086 0.144-0.226 0.144-0.435s-0.052-0.35-0.144-0.436c-0.099-0.092-0.228-0.154-0.39-0.184-0.167-0.030-0.338-0.046-0.513-0.046h-4.539c-0.183 0-0.354 0.015-0.513 0.046zM8.111 24.159c-0.109 0.093-0.248 0.156-0.419 0.187-0.171 0.023-0.345 0.035-0.524 0.035h-4.539c-0.186 0-0.361-0.016-0.524-0.047-0.171-0.031-0.31-0.097-0.419-0.198s-0.163-0.253-0.163-0.455c0-0.218 0.054-0.377 0.163-0.479s0.248-0.167 0.419-0.198c0.163-0.031 0.337-0.047 0.524-0.047h4.539c0.178 0 0.353 0.016 0.524 0.047s0.31 0.097 0.419 0.198 0.163 0.261 0.163 0.479c0 0.218-0.054 0.377-0.163 0.478zM9.81 23.681c0 0.714-0.125 1.286-0.381 1.711s-0.622 0.728-1.1 0.911c-0.474 0.182-1.036 0.272-1.685 0.272h-3.503c-0.657 0-1.219-0.090-1.685-0.272-0.469-0.184-0.829-0.488-1.076-0.912-0.256-0.425-0.381-0.997-0.381-1.71 0-0.721 0.125-1.297 0.38-1.722 0.247-0.432 0.607-0.74 1.076-0.923 0.466-0.182 1.029-0.272 1.685-0.272h3.503c0.649 0 1.211 0.090 1.685 0.272 0.477 0.183 0.845 0.492 1.1 0.923 0.256 0.425 0.381 1.001 0.381 1.722zM9.38 21.988c-0.248-0.42-0.605-0.72-1.071-0.899s-1.020-0.268-1.664-0.268h-3.503c-0.652 0-1.206 0.089-1.664 0.268s-0.807 0.478-1.047 0.899c-0.248 0.412-0.372 0.976-0.372 1.692 0 0.708 0.124 1.268 0.372 1.681 0.24 0.412 0.59 0.708 1.047 0.887s1.012 0.268 1.664 0.268h3.503c0.644 0 1.199-0.090 1.664-0.268s0.822-0.475 1.071-0.887c0.248-0.412 0.372-0.973 0.372-1.681 0-0.716-0.124-1.28-0.372-1.692zM2.117 15.989l-0 0c-0.162 0.029-0.291 0.091-0.39 0.184-0.092 0.086-0.144 0.227-0.144 0.436 0 0.192 0.051 0.326 0.144 0.412 0.099 0.092 0.228 0.154 0.39 0.184l0 0c0.159 0.030 0.33 0.046 0.513 0.046h4.539c0.175 0 0.347-0.011 0.514-0.034 0.162-0.030 0.29-0.088 0.389-0.173 0.092-0.086 0.143-0.226 0.143-0.435s-0.052-0.35-0.144-0.436c-0.099-0.092-0.228-0.154-0.39-0.184-0.167-0.030-0.338-0.046-0.513-0.046h-4.539c-0.183 0-0.354 0.015-0.513 0.046zM7.692 17.274c-0.171 0.023-0.345 0.035-0.524 0.035h-4.539c-0.186 0-0.361-0.016-0.524-0.047-0.171-0.031-0.31-0.097-0.419-0.198s-0.163-0.253-0.163-0.455c0-0.218 0.054-0.377 0.163-0.479s0.248-0.167 0.419-0.198c0.163-0.031 0.337-0.047 0.524-0.047h4.539c0.178 0 0.353 0.016 0.524 0.047s0.31 0.097 0.419 0.198 0.163 0.261 0.163 0.479c0 0.218-0.054 0.377-0.163 0.478-0.109 0.093-0.248 0.156-0.419 0.187zM9.81 16.609c0 0.714-0.125 1.286-0.381 1.711s-0.622 0.728-1.1 0.911c-0.474 0.182-1.036 0.272-1.685 0.272h-3.503c-0.657 0-1.219-0.090-1.685-0.272-0.469-0.184-0.829-0.488-1.076-0.912-0.256-0.425-0.381-0.997-0.381-1.71 0-0.721 0.125-1.297 0.38-1.722 0.247-0.432 0.607-0.74 1.076-0.923 0.466-0.182 1.029-0.272 1.685-0.272h3.503c0.649 0 1.211 0.090 1.685 0.272 0.477 0.183 0.845 0.492 1.1 0.923 0.256 0.425 0.381 1.001 0.381 1.722zM9.38 14.916c-0.248-0.42-0.605-0.72-1.071-0.899s-1.020-0.268-1.664-0.268h-3.503c-0.652 0-1.206 0.089-1.664 0.268s-0.807 0.479-1.047 0.899c-0.248 0.412-0.372 0.976-0.372 1.692 0 0.708 0.124 1.268 0.372 1.681 0.24 0.412 0.59 0.708 1.047 0.887s1.012 0.268 1.664 0.268h3.503c0.644 0 1.199-0.089 1.664-0.268s0.822-0.475 1.071-0.887c0.248-0.412 0.372-0.973 0.372-1.681 0-0.716-0.124-1.28-0.372-1.692zM2.117 8.917l-0 0c-0.162 0.030-0.291 0.091-0.39 0.184-0.092 0.086-0.144 0.226-0.144 0.436 0 0.192 0.051 0.326 0.144 0.412 0.099 0.092 0.228 0.154 0.39 0.184l0 0c0.159 0.030 0.33 0.046 0.513 0.046h4.539c0.175 0 0.347-0.011 0.514-0.034 0.162-0.030 0.29-0.088 0.389-0.173 0.092-0.086 0.143-0.226 0.143-0.435s-0.052-0.35-0.144-0.436c-0.099-0.092-0.228-0.154-0.39-0.184-0.167-0.030-0.338-0.046-0.513-0.046h-4.539c-0.183 0-0.354 0.015-0.513 0.046zM7.692 10.202c-0.171 0.023-0.345 0.035-0.524 0.035h-4.539c-0.186 0-0.361-0.016-0.524-0.047-0.171-0.031-0.31-0.097-0.419-0.198s-0.163-0.253-0.163-0.455c0-0.218 0.054-0.377 0.163-0.479s0.248-0.167 0.419-0.198c0.163-0.031 0.337-0.047 0.524-0.047h4.539c0.178 0 0.353 0.016 0.524 0.047s0.31 0.097 0.419 0.198 0.163 0.261 0.163 0.479c0 0.218-0.054 0.377-0.163 0.478-0.109 0.093-0.248 0.156-0.419 0.187zM9.81 9.537c0 0.714-0.125 1.286-0.381 1.711s-0.622 0.728-1.1 0.911c-0.474 0.182-1.036 0.272-1.685 0.272h-3.503c-0.657 0-1.219-0.090-1.685-0.272-0.469-0.184-0.829-0.488-1.076-0.912-0.256-0.425-0.381-0.997-0.381-1.71 0-0.721 0.125-1.297 0.38-1.722 0.247-0.432 0.607-0.74 1.076-0.923 0.466-0.182 1.029-0.272 1.685-0.272h3.503c0.649 0 1.211 0.090 1.685 0.272 0.477 0.184 0.845 0.492 1.1 0.923 0.256 0.425 0.381 1.001 0.381 1.722zM9.38 7.844c-0.248-0.42-0.605-0.72-1.071-0.899s-1.020-0.268-1.664-0.268h-3.503c-0.652 0-1.206 0.089-1.664 0.268s-0.807 0.479-1.047 0.899c-0.248 0.412-0.372 0.976-0.372 1.692 0 0.708 0.124 1.268 0.372 1.681 0.24 0.412 0.59 0.708 1.047 0.887s1.012 0.268 1.664 0.268h3.503c0.644 0 1.199-0.089 1.664-0.268s0.822-0.475 1.071-0.887c0.248-0.412 0.372-0.973 0.372-1.681 0-0.716-0.124-1.28-0.372-1.692zM9.671 4.052l-9.543 1.725v-1.905l6.073-0.963-6.073-0.897v-2.011l9.543 1.749v2.303zM6.587 2.906l-6.401 1.015v1.786l9.426-1.704v-2.206l-9.426-1.727v1.891l6.401 0.945z"></path>
</symbol>
<symbol id="icon-ellipse-hero" viewBox="0 0 85 32">
<path fill="none" stroke="#ec7973" style="stroke: var(--color4, #ec7973)" stroke-linejoin="miter" stroke-linecap="round" stroke-miterlimit="4" stroke-width="1.2929" d="M52.577 2.381c-23.855-4.883-50.98 3.315-51.623 10.67-0.681 7.785 17.509 15.736 40.628 17.759s42.412-2.649 43.093-10.434c0.647-7.397-24.652-16.739-47.469-15.864"></path>
</symbol>
</defs>
</svg>
